<svg width="26" height="26" viewBox="0 0 26 26" fill="none" xmlns="http://www.w3.org/2000/svg">
<g clip-path="url(#clip0)">
<path d="M16.7997 12.2894L11.1762 6.66599C11.0461 6.53582 10.8725 6.46411 10.6873 6.46411C10.5022 6.46411 10.3286 6.53582 10.1985 6.66599L9.78439 7.08002C9.51491 7.34981 9.51491 7.78829 9.78439 8.05767L14.5066 12.7799L9.77915 17.5073C9.64908 17.6375 9.57727 17.811 9.57727 17.9961C9.57727 18.1813 9.64908 18.3548 9.77915 18.4851L10.1933 18.899C10.3235 19.0292 10.497 19.1009 10.6821 19.1009C10.8672 19.1009 11.0409 19.0292 11.1709 18.899L16.7997 13.2705C16.9301 13.1399 17.0017 12.9655 17.0013 12.7802C17.0017 12.5941 16.9301 12.4199 16.7997 12.2894Z" fill="white"/>
</g>
<defs>
<clipPath id="clip0">
<rect width="9.75" height="13" fill="white" transform="translate(7.58203 6.5)"/>
</clipPath>
</defs>
</svg>
