<svg width="30" height="30" viewBox="0 0 30 30" fill="none" xmlns="http://www.w3.org/2000/svg">
<g clip-path="url(#clip0)">
<path d="M30 6.92754V23.0725C30 26.8986 26.8986 30 23.0725 30H6.92754C3.10137 30 0 26.8986 0 23.0725V6.92754C0 3.10137 3.10137 0 6.92754 0H23.0725C26.8986 0 30 3.10137 30 6.92754Z" fill="url(#paint0_linear)"/>
<path d="M6.92754 29.7656C3.23689 29.7656 0.234375 26.7631 0.234375 23.0725V6.92754C0.234375 3.23689 3.23689 0.234375 6.92754 0.234375H23.0725C26.7631 0.234375 29.7656 3.23689 29.7656 6.92754V23.0725C29.7656 26.7631 26.7631 29.7656 23.0725 29.7656H6.92754Z" fill="url(#paint1_linear)"/>
<path opacity="0.5" d="M30.0012 13.8396V23.0693C30.0012 26.8955 26.8998 29.9969 23.0736 29.9969H13.6096L13.3752 29.7625L7.82812 24.2154L21.9545 5.79297L30.0012 13.8396Z" fill="url(#paint2_linear)"/>
<path opacity="0.3" d="M21.7181 24.5369L15.6058 19.3269C15.4123 19.162 15.1278 19.162 14.9343 19.3269L8.82205 24.5369C8.48602 24.8233 7.96875 24.5845 7.96875 24.143V7.17463C7.96875 6.66832 8.3792 6.25781 8.88557 6.25781H21.6546C22.1609 6.25781 22.5714 6.66826 22.5714 7.17463V24.143C22.5714 24.5845 22.0541 24.8233 21.7181 24.5369Z" fill="#1A1A1A"/>
<path d="M21.4251 24.2439L15.3128 19.0339C15.1194 18.869 14.8348 18.869 14.6413 19.0339L8.52908 24.2439C8.19305 24.5303 7.67578 24.2916 7.67578 23.8501V6.88166C7.67578 6.37535 8.08623 5.96484 8.5926 5.96484H21.3616C21.8679 5.96484 22.2785 6.37529 22.2785 6.88166V23.8501C22.2784 24.2916 21.7611 24.5303 21.4251 24.2439Z" fill="url(#paint3_linear)"/>
<path d="M21.4251 23.8682L15.3128 18.6582C15.1194 18.4933 14.8348 18.4933 14.6413 18.6582L8.52908 23.8682C8.19305 24.1546 7.67578 23.9158 7.67578 23.4743V6.50593C7.67578 5.99962 8.08623 5.58911 8.5926 5.58911H21.3616C21.8679 5.58911 22.2785 5.99956 22.2785 6.50593V23.4743C22.2784 23.9158 21.7611 24.1546 21.4251 23.8682Z" fill="url(#paint4_linear)"/>
<path d="M21.758 23.8725C21.6641 23.8725 21.5753 23.839 21.5011 23.7758L15.3888 18.5657C15.2741 18.4679 15.1279 18.4141 14.9771 18.4141C14.8263 18.4141 14.6801 18.4679 14.5654 18.5657L8.45309 23.7758C8.37891 23.839 8.29008 23.8725 8.19621 23.8725C8.09355 23.8725 7.99148 23.8318 7.91613 23.7608C7.83674 23.6861 7.79297 23.5832 7.79297 23.4711V6.5027C7.79297 6.06184 8.15168 5.70312 8.5926 5.70312H21.3616C21.8025 5.70312 22.1612 6.06184 22.1612 6.5027V23.4711C22.1612 23.7223 21.9561 23.8725 21.758 23.8725Z" fill="url(#paint5_linear)"/>
<path d="M22.2784 12.7711V6.50593C22.2784 5.99962 21.868 5.58911 21.3616 5.58911H8.5926C8.08629 5.58911 7.67578 5.99956 7.67578 6.50593V12.7711H22.2784Z" fill="url(#paint6_linear)"/>
<path d="M22.2784 12.175V6.50593C22.2784 5.99962 21.868 5.58911 21.3616 5.58911H8.5926C8.08629 5.58911 7.67578 5.99956 7.67578 6.50593V12.175H22.2784Z" fill="url(#paint7_linear)"/>
<path d="M7.79297 12.0551V6.50318C7.79297 6.06232 8.15168 5.70361 8.5926 5.70361H21.3616C21.8025 5.70361 22.1612 6.06232 22.1612 6.50318V12.0551H7.79297Z" fill="url(#paint8_linear)"/>
<path opacity="0.3" d="M14.9405 10.6571L13.7241 11.2966C13.5894 11.3675 13.4318 11.253 13.4575 11.103L13.6898 9.74859C13.7 9.689 13.6803 9.62818 13.637 9.58599L12.653 8.62681C12.5439 8.52052 12.6041 8.33531 12.7548 8.31345L14.1147 8.11588C14.1745 8.1072 14.2263 8.06959 14.253 8.01539L14.8612 6.7831C14.9286 6.64652 15.1233 6.64652 15.1907 6.7831L15.7989 8.01539C15.8256 8.06959 15.8774 8.1072 15.9372 8.11588L17.2971 8.31345C17.4478 8.33537 17.508 8.52052 17.3989 8.62681L16.4149 9.58599C16.3716 9.62818 16.3519 9.689 16.3621 9.74859L16.5944 11.103C16.6201 11.253 16.4626 11.3675 16.3278 11.2966L15.1114 10.6571C15.058 10.629 14.994 10.629 14.9405 10.6571Z" fill="#1A1A1A"/>
<path d="M17.3378 8.21625H17.1363L15.8204 8.02505C15.7605 8.01638 15.7088 7.97876 15.682 7.92457L15.0739 6.69228C15.0065 6.5557 14.8118 6.5557 14.7444 6.69228L14.1362 7.92457C14.1094 7.97876 14.0577 8.01638 13.9979 8.02505L12.682 8.21625H12.4805V8.42132H12.4812C12.4847 8.46234 12.5023 8.503 12.5361 8.53605L13.5202 9.49523C13.5635 9.53742 13.5832 9.59824 13.573 9.65783L13.3696 10.8438H13.338V11.0488H13.3381C13.3412 11.1801 13.4837 11.2709 13.6073 11.2059L14.8236 10.5664C14.8771 10.5383 14.9411 10.5383 14.9946 10.5664L16.211 11.2059C16.3378 11.2726 16.4848 11.1752 16.4801 11.0383V10.8438H16.4486L16.2452 9.65783C16.235 9.59824 16.2548 9.53742 16.2981 9.49523L17.2821 8.53605C17.316 8.503 17.3335 8.46234 17.3371 8.42132H17.3378V8.21625Z" fill="url(#paint9_linear)"/>
<path d="M14.8236 10.371L13.6073 11.0105C13.4725 11.0813 13.315 10.9669 13.3407 10.8168L13.573 9.46241C13.5832 9.40282 13.5635 9.342 13.5202 9.29981L12.5362 8.34063C12.4271 8.23435 12.4873 8.04913 12.638 8.02728L13.9979 7.8297C14.0577 7.82102 14.1095 7.78341 14.1362 7.72921L14.7444 6.49692C14.8118 6.3604 15.0065 6.3604 15.0739 6.49692L15.682 7.72921C15.7088 7.78341 15.7606 7.82102 15.8204 7.8297L17.1803 8.02728C17.331 8.04919 17.3912 8.23435 17.2821 8.34063L16.2981 9.29981C16.2548 9.342 16.2351 9.40282 16.2453 9.46241L16.4776 10.8168C16.5033 10.9669 16.3458 11.0814 16.211 11.0105L14.9946 10.371C14.9411 10.3428 14.8772 10.3428 14.8236 10.371Z" fill="white"/>
<path d="M16.3004 10.9774C16.2804 10.9774 16.2608 10.9724 16.2421 10.9626L15.0258 10.3232C14.9912 10.3049 14.9522 10.2953 14.9131 10.2953C14.874 10.2953 14.835 10.3049 14.8003 10.3232L13.584 10.9626C13.5654 10.9724 13.5457 10.9774 13.5257 10.9774C13.4894 10.9774 13.4534 10.9603 13.4294 10.9318C13.4056 10.9037 13.396 10.8677 13.4024 10.8306L13.6347 9.47625C13.6481 9.39768 13.6221 9.31752 13.5651 9.2618L12.581 8.30262C12.5462 8.26863 12.5343 8.2207 12.5493 8.17436C12.5643 8.12801 12.6021 8.09619 12.6504 8.08916L14.0102 7.89158C14.0891 7.88016 14.1573 7.83059 14.1927 7.7591L14.8009 6.52676C14.8224 6.48311 14.8643 6.45703 14.9131 6.45703C14.9618 6.45703 15.0037 6.48311 15.0253 6.52676L15.6334 7.75904C15.6688 7.83059 15.737 7.8801 15.8159 7.89158L17.1758 8.08916C17.2239 8.09619 17.2617 8.12801 17.2768 8.17436C17.2919 8.2207 17.28 8.26863 17.2452 8.30262L16.2611 9.2618C16.2039 9.31752 16.1779 9.39768 16.1914 9.47625L16.4237 10.8306C16.4301 10.8677 16.4205 10.9037 16.3968 10.9318C16.3728 10.9603 16.3367 10.9774 16.3004 10.9774Z" fill="url(#paint10_linear)"/>
</g>
<defs>
<linearGradient id="paint0_linear" x1="15" y1="0.423223" x2="15" y2="30.1975" gradientUnits="userSpaceOnUse">
<stop stop-color="#93E5FF"/>
<stop offset="1" stop-color="#368ACB"/>
</linearGradient>
<linearGradient id="paint1_linear" x1="15" y1="0.650977" x2="15" y2="29.9602" gradientUnits="userSpaceOnUse">
<stop stop-color="#3BCFFF"/>
<stop offset="1" stop-color="#3464AE"/>
</linearGradient>
<linearGradient id="paint2_linear" x1="14.7668" y1="14.8797" x2="28.2727" y2="28.3855" gradientUnits="userSpaceOnUse">
<stop stop-color="#2055A6"/>
<stop offset="1" stop-color="#3464AE" stop-opacity="0"/>
</linearGradient>
<linearGradient id="paint3_linear" x1="14.9771" y1="23.9311" x2="14.9771" y2="9.88031" gradientUnits="userSpaceOnUse">
<stop stop-color="#9E7435"/>
<stop offset="0.995" stop-color="#9F9823"/>
</linearGradient>
<linearGradient id="paint4_linear" x1="14.9771" y1="23.5551" x2="14.9771" y2="9.50487" gradientUnits="userSpaceOnUse">
<stop offset="0.005" stop-color="#FCFF8B"/>
<stop offset="1" stop-color="#FBC97B"/>
</linearGradient>
<linearGradient id="paint5_linear" x1="14.9771" y1="23.4405" x2="14.9771" y2="9.56902" gradientUnits="userSpaceOnUse">
<stop offset="0.005" stop-color="#FCF039"/>
<stop offset="1" stop-color="#FBB953"/>
</linearGradient>
<linearGradient id="paint6_linear" x1="14.9771" y1="3.43573" x2="14.9771" y2="15.5564" gradientUnits="userSpaceOnUse">
<stop stop-color="#A1621B"/>
<stop offset="1" stop-color="#A1501D"/>
</linearGradient>
<linearGradient id="paint7_linear" x1="14.9771" y1="3.61444" x2="14.9771" y2="14.7297" gradientUnits="userSpaceOnUse">
<stop stop-color="#F7A447"/>
<stop offset="1" stop-color="#F78D4A"/>
</linearGradient>
<linearGradient id="paint8_linear" x1="14.9771" y1="3.79896" x2="14.9771" y2="14.5183" gradientUnits="userSpaceOnUse">
<stop stop-color="#F7962A"/>
<stop offset="1" stop-color="#F77B2D"/>
</linearGradient>
<linearGradient id="paint9_linear" x1="14.9091" y1="6.47402" x2="14.9091" y2="11.1873" gradientUnits="userSpaceOnUse">
<stop stop-color="#AFAFAF"/>
<stop offset="0.995" stop-color="#A3A3A3"/>
</linearGradient>
<linearGradient id="paint10_linear" x1="14.9131" y1="6.34383" x2="14.9131" y2="10.9382" gradientUnits="userSpaceOnUse">
<stop stop-color="#F2F2F2"/>
<stop offset="0.995" stop-color="#E6E6E6"/>
</linearGradient>
<clipPath id="clip0">
<rect width="30" height="30" fill="white"/>
</clipPath>
</defs>
</svg>
