<svg width="335" height="212" viewBox="0 0 335 212" fill="none" xmlns="http://www.w3.org/2000/svg">
<rect x="334.308" y="1.52588e-05" width="212" height="334.308" rx="17" transform="rotate(90 334.308 1.52588e-05)" fill="url(#paint0_linear)" fill-opacity="0.8" style="mix-blend-mode:soft-light"/>
<rect x="334.308" y="1.52588e-05" width="212" height="334.308" rx="17" transform="rotate(90 334.308 1.52588e-05)" fill="url(#paint1_linear)"/>
<mask id="mask0" mask-type="alpha" maskUnits="userSpaceOnUse" x="0" y="0" width="335" height="212">
<rect x="334.308" y="1.52588e-05" width="212" height="334.308" rx="17" transform="rotate(90 334.308 1.52588e-05)" fill="url(#paint2_linear)" fill-opacity="0.8"/>
<rect x="334.308" y="1.52588e-05" width="212" height="334.308" rx="17" transform="rotate(90 334.308 1.52588e-05)" fill="url(#paint3_linear)"/>
</mask>
<g mask="url(#mask0)">
<g filter="url(#filter0_f)">
<ellipse cx="283.763" cy="71.2188" rx="100.203" ry="76.0152" transform="rotate(90 283.763 71.2188)" fill="#F6BF76"/>
</g>
<g filter="url(#filter1_f)">
<ellipse cx="66.4638" cy="21.1172" rx="75.7734" ry="95.1185" transform="rotate(90 66.4638 21.1172)" fill="#EF898A"/>
</g>
<g filter="url(#filter2_b)">
<rect x="334.308" y="1.52588e-05" width="212" height="334.308" rx="17" transform="rotate(90 334.308 1.52588e-05)" fill="white" fill-opacity="0.07" style="mix-blend-mode:soft-light"/>
</g>
</g>
<rect x="0.00012207" y="30" width="335" height="56" fill="black" fill-opacity="0.6"/>
<rect x="17.0001" y="102" width="302" height="44" rx="4" fill="white" fill-opacity="0.3"/>
<defs>
<filter id="filter0_f" x="133.748" y="-102.984" width="300.03" height="348.406" filterUnits="userSpaceOnUse" color-interpolation-filters="sRGB">
<feFlood flood-opacity="0" result="BackgroundImageFix"/>
<feBlend mode="normal" in="SourceGraphic" in2="BackgroundImageFix" result="shape"/>
<feGaussianBlur stdDeviation="37" result="effect1_foregroundBlur"/>
</filter>
<filter id="filter1_f" x="-152.655" y="-178.656" width="438.237" height="399.547" filterUnits="userSpaceOnUse" color-interpolation-filters="sRGB">
<feFlood flood-opacity="0" result="BackgroundImageFix"/>
<feBlend mode="normal" in="SourceGraphic" in2="BackgroundImageFix" result="shape"/>
<feGaussianBlur stdDeviation="62" result="effect1_foregroundBlur"/>
</filter>
<filter id="filter2_b" x="-40" y="-40" width="414.308" height="292" filterUnits="userSpaceOnUse" color-interpolation-filters="sRGB">
<feFlood flood-opacity="0" result="BackgroundImageFix"/>
<feGaussianBlur in="BackgroundImage" stdDeviation="20"/>
<feComposite in2="SourceAlpha" operator="in" result="effect1_backgroundBlur"/>
<feBlend mode="normal" in="SourceGraphic" in2="effect1_backgroundBlur" result="shape"/>
</filter>
<linearGradient id="paint0_linear" x1="534.714" y1="5.57181" x2="345.549" y2="321.926" gradientUnits="userSpaceOnUse">
<stop stop-color="#55C0F7"/>
<stop offset="1" stop-color="#A8E8FA"/>
</linearGradient>
<linearGradient id="paint1_linear" x1="340.933" y1="4.77584" x2="529.338" y2="340.804" gradientUnits="userSpaceOnUse">
<stop stop-color="#F3AC6E"/>
<stop offset="0.503297" stop-color="#EC6531"/>
<stop offset="1" stop-color="#ED6F2F"/>
</linearGradient>
<linearGradient id="paint2_linear" x1="534.714" y1="5.57181" x2="345.549" y2="321.926" gradientUnits="userSpaceOnUse">
<stop stop-color="#55C0F7"/>
<stop offset="1" stop-color="#A8E8FA"/>
</linearGradient>
<linearGradient id="paint3_linear" x1="340.933" y1="4.77584" x2="529.338" y2="340.804" gradientUnits="userSpaceOnUse">
<stop stop-color="#1B5CF6"/>
<stop offset="0.503297" stop-color="#429EFF"/>
<stop offset="0.890632" stop-color="#D33BA7"/>
</linearGradient>
</defs>
</svg>
