<svg width="30" height="30" viewBox="0 0 30 30" fill="none" xmlns="http://www.w3.org/2000/svg">
<g clip-path="url(#clip0)">
<path d="M30 6.92754V23.0725C30 26.8986 26.8986 30 23.0725 30H6.92754C3.10137 30 0 26.8986 0 23.0725V6.92754C0 3.10137 3.10137 0 6.92754 0H23.0725C26.8986 0 30 3.10137 30 6.92754Z" fill="url(#paint0_linear)"/>
<path d="M6.92754 29.7656C3.23689 29.7656 0.234375 26.7631 0.234375 23.0725V6.92754C0.234375 3.23689 3.23689 0.234375 6.92754 0.234375H23.0725C26.7631 0.234375 29.7656 3.23689 29.7656 6.92748V23.0724C29.7656 26.7631 26.7631 29.7656 23.0725 29.7656H6.92754Z" fill="url(#paint1_linear)"/>
<path opacity="0.5" d="M30.002 18.8645V23.0732C30.002 26.8994 26.9006 30.0008 23.0744 30.0008H14.3867L7.88281 23.4969L12.1197 7.63672H18.763L30.002 18.8645Z" fill="url(#paint2_linear)"/>
<path opacity="0.3" d="M22.5215 13.1438C22.2556 12.7502 21.8054 12.4915 21.2947 12.4915H20.6912V11.8314C20.6912 8.84209 18.2592 6.41016 15.27 6.41016C12.2807 6.41016 9.84875 8.84209 9.84875 11.8314V12.4915H9.24518C8.42803 12.4915 7.76562 13.1539 7.76562 13.971V15.5941V21.0752V22.6983C7.76562 23.5154 8.42803 24.1778 9.24518 24.1778H21.2947C22.1119 24.1778 22.7743 23.5154 22.7743 22.6983V21.0752V15.5941V13.971C22.7742 13.6646 22.681 13.3799 22.5215 13.1438ZM15.2698 8.35787C17.1852 8.35787 18.7433 9.91605 18.7433 11.8314V12.4915H11.7963V11.8314C11.7963 9.91611 13.3545 8.35787 15.2698 8.35787Z" fill="#1A1A1A"/>
<path d="M21.1499 23.8641H8.81186C8.07439 23.8641 7.47656 23.2662 7.47656 22.5288V15.1361C7.47656 14.3986 8.07439 13.8008 8.81186 13.8008H21.1499C21.8874 13.8008 22.4852 14.3986 22.4852 15.1361V22.5288C22.4852 23.2662 21.8874 23.8641 21.1499 23.8641Z" fill="url(#paint3_linear)"/>
<path d="M21.1499 22.2391H8.81186C8.07439 22.2391 7.47656 21.6413 7.47656 20.9038V13.5111C7.47656 12.7736 8.07439 12.1758 8.81186 12.1758H21.1499C21.8874 12.1758 22.4852 12.7736 22.4852 13.5111V20.9038C22.4852 21.6413 21.8874 22.2391 21.1499 22.2391Z" fill="white"/>
<path d="M8.81185 22.1218C8.14019 22.1218 7.59375 21.5754 7.59375 20.9038V13.511C7.59375 12.8394 8.14019 12.293 8.81185 12.293H21.15C21.8216 12.293 22.368 12.8394 22.368 13.511V20.9038C22.368 21.5754 21.8216 22.1218 21.15 22.1218H8.81185Z" fill="url(#paint4_linear)"/>
<path d="M16.2425 15.8088C16.2425 15.1118 15.6775 14.5469 14.9806 14.5469C14.2837 14.5469 13.7188 15.1118 13.7188 15.8088C13.7188 16.2462 13.9415 16.6315 14.2795 16.8578V19.1697C14.2795 19.5569 14.5934 19.8707 14.9806 19.8707C15.3677 19.8707 15.6816 19.5568 15.6816 19.1697V16.8578C16.0197 16.6315 16.2425 16.2462 16.2425 15.8088Z" fill="#333333"/>
<path d="M20.4011 12.179H18.4534V11.5189C18.4534 9.60355 16.8952 8.04537 14.9799 8.04537C13.0646 8.04537 11.5064 9.60355 11.5064 11.5189V12.179H9.55859V11.5189C9.55859 8.52959 11.9905 6.09766 14.9798 6.09766C17.9691 6.09766 20.401 8.52959 20.401 11.5189V12.179H20.4011Z" fill="url(#paint5_linear)"/>
<path d="M14.9798 6.09375C11.9905 6.09375 9.55859 8.52568 9.55859 11.515V12.1751H10.8228V11.4195C10.8228 9.12726 12.6876 7.2624 14.9799 7.2624C17.2721 7.2624 19.137 9.12726 19.137 11.4195V12.1751H20.4011V11.515C20.401 8.52568 17.9691 6.09375 14.9798 6.09375Z" fill="url(#paint6_linear)"/>
</g>
<defs>
<linearGradient id="paint0_linear" x1="15" y1="0.292969" x2="15" y2="30.1781" gradientUnits="userSpaceOnUse">
<stop stop-color="#FFE2B0"/>
<stop offset="1" stop-color="#F67490"/>
</linearGradient>
<linearGradient id="paint1_linear" x1="15" y1="0.522773" x2="15" y2="29.9408" gradientUnits="userSpaceOnUse">
<stop stop-color="#FFB66D"/>
<stop offset="1" stop-color="#F4516F"/>
</linearGradient>
<linearGradient id="paint2_linear" x1="8.85723" y1="11.0955" x2="26.5021" y2="28.7404" gradientUnits="userSpaceOnUse">
<stop stop-color="#C2363C"/>
<stop offset="1" stop-color="#F34E70" stop-opacity="0"/>
</linearGradient>
<linearGradient id="paint3_linear" x1="14.9809" y1="16.7547" x2="14.9809" y2="24.0959" gradientUnits="userSpaceOnUse">
<stop stop-color="#CCCCCC"/>
<stop offset="1" stop-color="#9C9C9C"/>
</linearGradient>
<linearGradient id="paint4_linear" x1="14.9809" y1="16.7633" x2="14.9809" y2="23.9334" gradientUnits="userSpaceOnUse">
<stop stop-color="#F2F2F2"/>
<stop offset="0.995" stop-color="#E6E6E6"/>
</linearGradient>
<linearGradient id="paint5_linear" x1="14.9799" y1="12.2607" x2="14.9799" y2="5.98234" gradientUnits="userSpaceOnUse">
<stop stop-color="#A8A8A8"/>
<stop offset="1" stop-color="#787878"/>
</linearGradient>
<linearGradient id="paint6_linear" x1="14.9799" y1="6.2574" x2="14.9799" y2="12.3781" gradientUnits="userSpaceOnUse">
<stop stop-color="#CCCCCC"/>
<stop offset="1" stop-color="#9C9C9C"/>
</linearGradient>
<clipPath id="clip0">
<rect width="30" height="30" fill="white"/>
</clipPath>
</defs>
</svg>
