<svg width="45" height="37" viewBox="0 0 45 37" fill="none" xmlns="http://www.w3.org/2000/svg">
<path d="M11.1429 32.3447V30.501C11.1536 30.3459 11.1312 30.1903 11.0773 30.0446C11.0233 29.8989 10.939 29.7664 10.8299 29.6559C10.7209 29.5454 10.5896 29.4595 10.4448 29.4039C10.3 29.3483 10.1451 29.3242 9.99028 29.3333C9.78767 29.32 9.58521 29.3614 9.40404 29.4533C9.22287 29.5452 9.06962 29.6842 8.96031 29.8557C8.86066 29.6893 8.71808 29.553 8.5476 29.461C8.37712 29.3691 8.18505 29.325 7.99164 29.3333C7.82305 29.3248 7.65516 29.3605 7.5046 29.4371C7.35405 29.5136 7.22607 29.6282 7.13333 29.7696V29.407H6.49573L6.49573 32.3447H7.13946L7.13946 30.7284C7.12577 30.6279 7.13438 30.5257 7.16469 30.4289C7.195 30.3322 7.24625 30.2434 7.31478 30.1688C7.38331 30.0942 7.46743 30.0358 7.56112 29.9976C7.65481 29.9594 7.75577 29.9424 7.85676 29.9479C8.27979 29.9479 8.49436 30.2244 8.49436 30.7222V32.357H9.1381V30.7284C9.12497 30.628 9.13397 30.526 9.16449 30.4295C9.195 30.333 9.24628 30.2444 9.31469 30.17C9.3831 30.0955 9.46699 30.0371 9.56042 29.9987C9.65385 29.9603 9.75455 29.943 9.8554 29.9479C10.2907 29.9479 10.4991 30.2244 10.4991 30.7222V32.357L11.1429 32.3447ZM20.667 29.407H19.6187V28.5159H18.975V29.407H18.3925V29.9909H18.9872V31.3429C18.9872 32.0251 19.2508 32.4307 20.0049 32.4307C20.2867 32.4317 20.5629 32.3528 20.8019 32.2033L20.618 31.6564C20.447 31.7586 20.253 31.8157 20.054 31.8223C19.7474 31.8223 19.6309 31.6256 19.6309 31.3306V29.9909H20.6732L20.667 29.407ZM26.1051 29.3333C25.9496 29.3287 25.7958 29.3663 25.6598 29.442C25.5239 29.5177 25.4108 29.6288 25.3326 29.7635V29.407H24.7011V32.3447H25.3387V30.6976C25.3387 30.2121 25.5472 29.9417 25.9518 29.9417C26.0882 29.9398 26.2236 29.9649 26.3503 30.0155L26.5465 29.4009C26.4009 29.3487 26.2475 29.3217 26.0928 29.321L26.1051 29.3333ZM17.8837 29.6406C17.5228 29.4255 17.1078 29.3188 16.6882 29.3333C15.9463 29.3333 15.462 29.6897 15.462 30.2736C15.462 30.7529 15.8176 31.0479 16.4736 31.1401L16.7801 31.1831C17.1296 31.2323 17.2951 31.3245 17.2951 31.4904C17.2951 31.7178 17.0621 31.8469 16.6269 31.8469C16.2767 31.857 15.9334 31.7488 15.6521 31.5396L15.3455 32.0374C15.7169 32.2973 16.1618 32.4309 16.6146 32.4184C17.4606 32.4184 17.9511 32.019 17.9511 31.4597C17.9511 30.9004 17.5649 30.673 16.9273 30.5809L16.6207 30.5378C16.3448 30.501 16.1241 30.4457 16.1241 30.249C16.1241 30.0523 16.3326 29.9048 16.682 29.9048C17.005 29.9086 17.3217 29.9954 17.6017 30.1568L17.8837 29.6406ZM34.961 29.3333C34.8055 29.3287 34.6517 29.3663 34.5158 29.442C34.3798 29.5177 34.2668 29.6288 34.1885 29.7635V29.407H33.557V32.3447H34.1946V30.6976C34.1946 30.2121 34.4031 29.9417 34.8077 29.9417C34.9441 29.9398 35.0795 29.9649 35.2062 30.0155L35.4024 29.4009C35.2568 29.3487 35.1034 29.3217 34.9487 29.321L34.961 29.3333ZM26.7457 30.8697C26.7381 31.0761 26.7736 31.2819 26.8499 31.4738C26.9262 31.6657 27.0416 31.8395 27.1888 31.9841C27.3359 32.1288 27.5116 32.241 27.7045 32.3137C27.8974 32.3863 28.1033 32.4178 28.3091 32.4061C28.6919 32.4257 29.0681 32.3007 29.3636 32.0558L29.057 31.5396C28.8366 31.7081 28.5679 31.8008 28.2907 31.8039C28.055 31.7847 27.8351 31.6774 27.6748 31.5032C27.5145 31.3289 27.4255 31.1006 27.4255 30.8636C27.4255 30.6265 27.5145 30.3982 27.6748 30.224C27.8351 30.0497 28.055 29.9424 28.2907 29.9233C28.5679 29.9264 28.8366 30.0191 29.057 30.1875L29.3636 29.6713C29.0681 29.4265 28.6919 29.3015 28.3091 29.321C28.1033 29.3093 27.8974 29.3408 27.7045 29.4135C27.5116 29.4861 27.3359 29.5984 27.1888 29.743C27.0416 29.8876 26.9262 30.0614 26.8499 30.2533C26.7736 30.4452 26.7381 30.651 26.7457 30.8574V30.8697ZM32.7171 30.8697V29.407H32.0795V29.7635C31.9712 29.6238 31.8314 29.512 31.6715 29.4372C31.5116 29.3624 31.3362 29.3268 31.1599 29.3333C30.7534 29.3333 30.3636 29.4952 30.0761 29.7833C29.7887 30.0714 29.6272 30.4622 29.6272 30.8697C29.6272 31.2772 29.7887 31.668 30.0761 31.9561C30.3636 32.2443 30.7534 32.4061 31.1599 32.4061C31.3362 32.4127 31.5116 32.377 31.6715 32.3022C31.8314 32.2274 31.9712 32.1156 32.0795 31.9759V32.3324H32.7171V30.8697ZM30.3445 30.8697C30.3547 30.6968 30.4151 30.5306 30.5182 30.3917C30.6214 30.2527 30.7629 30.1471 30.9252 30.0877C31.0876 30.0283 31.2637 30.0178 31.4319 30.0575C31.6001 30.0972 31.753 30.1854 31.8719 30.3111C31.9907 30.4368 32.0703 30.5946 32.1008 30.7651C32.1314 30.9356 32.1115 31.1114 32.0436 31.2707C31.9758 31.43 31.8629 31.5659 31.719 31.6617C31.575 31.7576 31.4063 31.8091 31.2335 31.81C31.1121 31.8115 30.9917 31.7879 30.8799 31.7405C30.7681 31.6932 30.6673 31.6231 30.5838 31.5348C30.5003 31.4465 30.4359 31.3418 30.3947 31.2273C30.3536 31.1129 30.3365 30.9911 30.3445 30.8697ZM22.6504 29.3333C22.2439 29.339 21.8563 29.5063 21.5729 29.7985C21.2895 30.0907 21.1334 30.4837 21.1391 30.8912C21.1448 31.2987 21.3117 31.6872 21.6032 31.9713C21.8947 32.2554 22.2868 32.4118 22.6933 32.4061C23.1343 32.4288 23.568 32.2865 23.9102 32.0067L23.6037 31.5334C23.3616 31.728 23.0618 31.8362 22.7515 31.8407C22.5408 31.8589 22.3312 31.7939 22.1675 31.6597C22.0038 31.5254 21.8988 31.3324 21.8748 31.1217H24.0512C24.0512 31.0418 24.0512 30.9619 24.0512 30.8759C24.0512 29.954 23.4811 29.3394 22.6596 29.3394L22.6504 29.3333ZM22.6504 29.9048C22.7458 29.9028 22.8406 29.9196 22.9296 29.9544C23.0185 29.9891 23.0997 30.041 23.1686 30.1072C23.2375 30.1734 23.2927 30.2526 23.3311 30.3402C23.3694 30.4278 23.3902 30.5221 23.3922 30.6177H21.8595C21.8706 30.4205 21.9583 30.2354 22.1038 30.1022C22.2493 29.9689 22.4411 29.8981 22.6381 29.9048H22.6504ZM38.6241 30.8759V28.2271H38.0111V29.7635C37.9028 29.6238 37.7629 29.512 37.603 29.4372C37.4431 29.3624 37.2678 29.3268 37.0914 29.3333C36.6849 29.3333 36.2951 29.4952 36.0077 29.7833C35.7202 30.0714 35.5587 30.4622 35.5587 30.8697C35.5587 31.2772 35.7202 31.668 36.0077 31.9561C36.2951 32.2443 36.6849 32.4061 37.0914 32.4061C37.2678 32.4127 37.4431 32.377 37.603 32.3022C37.7629 32.2274 37.9028 32.1156 38.0111 31.9759V32.3324H38.6241V30.8759ZM39.6878 31.9176C39.7277 31.9171 39.7673 31.9244 39.8043 31.9391C39.8395 31.9535 39.8717 31.9743 39.8993 32.0005C39.9263 32.027 39.9481 32.0583 39.9637 32.0927C39.9792 32.1286 39.9872 32.1673 39.9872 32.2064C39.9872 32.2455 39.9792 32.2842 39.9637 32.3201C39.9481 32.3545 39.9263 32.3858 39.8993 32.4123C39.8717 32.4385 39.8395 32.4593 39.8043 32.4737C39.7676 32.49 39.7279 32.4983 39.6878 32.4983C39.6297 32.4979 39.5729 32.4809 39.5241 32.4493C39.4752 32.4178 39.4363 32.373 39.4119 32.3201C39.3966 32.2842 39.3887 32.2455 39.3887 32.2064C39.3887 32.1673 39.3966 32.1286 39.4119 32.0927C39.4276 32.0583 39.4494 32.027 39.4763 32.0005C39.5039 31.9743 39.5361 31.9535 39.5713 31.9391C39.6113 31.9231 39.6541 31.9158 39.697 31.9176H39.6878ZM39.6878 32.4369C39.7184 32.437 39.7487 32.4308 39.7767 32.4184C39.8031 32.4066 39.827 32.3899 39.8472 32.3693C39.8856 32.3273 39.9068 32.2725 39.9068 32.2156C39.9068 32.1587 39.8856 32.1039 39.8472 32.062C39.8271 32.0412 39.8031 32.0245 39.7767 32.0128C39.7487 32.0006 39.7184 31.9943 39.6878 31.9944C39.6573 31.9945 39.627 32.0008 39.5989 32.0128C39.5714 32.0241 39.5464 32.0408 39.5254 32.062C39.487 32.1039 39.4657 32.1587 39.4657 32.2156C39.4657 32.2725 39.487 32.3273 39.5254 32.3693C39.5464 32.3903 39.5714 32.407 39.5989 32.4184C39.6299 32.4318 39.6634 32.4381 39.697 32.4369H39.6878ZM39.7062 32.0712C39.7348 32.0698 39.763 32.0785 39.7859 32.0958C39.7953 32.1036 39.8027 32.1135 39.8075 32.1247C39.8123 32.1359 39.8144 32.1481 39.8135 32.1603C39.8139 32.1705 39.8123 32.1807 39.8086 32.1902C39.8049 32.1997 39.7993 32.2084 39.792 32.2156C39.7743 32.2318 39.7516 32.2415 39.7277 32.2433L39.8166 32.3447H39.7461L39.6633 32.2433H39.6357V32.3447H39.5775V32.0743L39.7062 32.0712ZM39.6388 32.1234V32.1972H39.7062C39.7182 32.2008 39.731 32.2008 39.743 32.1972C39.7452 32.1929 39.7463 32.1882 39.7463 32.1833C39.7463 32.1785 39.7452 32.1738 39.743 32.1695C39.7452 32.1652 39.7463 32.1605 39.7463 32.1557C39.7463 32.1509 39.7452 32.1462 39.743 32.1419C39.731 32.1383 39.7182 32.1383 39.7062 32.1419L39.6388 32.1234ZM36.2668 30.8759C36.277 30.7029 36.3374 30.5368 36.4406 30.3978C36.5438 30.2589 36.6852 30.1532 36.8476 30.0939C37.0099 30.0345 37.186 30.024 37.3542 30.0637C37.5224 30.1034 37.6754 30.1915 37.7942 30.3172C37.9131 30.443 37.9927 30.6008 38.0232 30.7713C38.0537 30.9418 38.0338 31.1175 37.966 31.2768C37.8981 31.4361 37.7853 31.5721 37.6413 31.6679C37.4974 31.7637 37.3286 31.8152 37.1558 31.8161C37.0344 31.8177 36.9141 31.794 36.8023 31.7467C36.6904 31.6993 36.5896 31.6293 36.5061 31.541C36.4226 31.4526 36.3583 31.348 36.3171 31.2335C36.2759 31.119 36.2588 30.9973 36.2668 30.8759ZM14.7386 30.8759V29.407H14.101V29.7635C13.9927 29.6238 13.8528 29.512 13.6929 29.4372C13.533 29.3624 13.3577 29.3268 13.1814 29.3333C12.7749 29.3333 12.385 29.4952 12.0976 29.7833C11.8101 30.0714 11.6487 30.4622 11.6487 30.8697C11.6487 31.2772 11.8101 31.668 12.0976 31.9561C12.385 32.2443 12.7749 32.4061 13.1814 32.4061C13.3577 32.4127 13.533 32.377 13.6929 32.3022C13.8528 32.2274 13.9927 32.1156 14.101 31.9759V32.3324H14.7386V30.8759ZM12.366 30.8759C12.3761 30.7029 12.4365 30.5368 12.5397 30.3978C12.6429 30.2589 12.7843 30.1532 12.9467 30.0939C13.109 30.0345 13.2851 30.024 13.4533 30.0637C13.6215 30.1034 13.7745 30.1915 13.8933 30.3172C14.0122 30.443 14.0918 30.6008 14.1223 30.7713C14.1528 30.9418 14.1329 31.1175 14.0651 31.2768C13.9972 31.4361 13.8844 31.5721 13.7404 31.6679C13.5965 31.7637 13.4277 31.8152 13.2549 31.8161C13.133 31.8185 13.012 31.7955 12.8994 31.7485C12.7869 31.7016 12.6853 31.6317 12.6012 31.5432C12.517 31.4548 12.4521 31.3499 12.4106 31.235C12.369 31.1201 12.3517 30.9978 12.3598 30.8759H12.366Z" fill="white"/>
<path d="M27.3281 7.02144L17.6721 7.02144L17.6721 24.4168H27.3281L27.3281 7.02144Z" fill="#FF5F00"/>
<path d="M18.2852 15.7214C18.2834 14.0459 18.662 12.3919 19.3922 10.8848C20.1225 9.37759 21.1853 8.05674 22.5001 7.02224C20.8721 5.7397 18.917 4.94217 16.8582 4.72079C14.7995 4.49941 12.7201 4.86312 10.8578 5.77034C8.99547 6.67756 7.42534 8.0917 6.32684 9.85113C5.22835 11.6106 4.64581 13.6443 4.64581 15.7199C4.64581 17.7955 5.22835 19.8292 6.32684 21.5887C7.42534 23.3481 8.99547 24.7622 10.8578 25.6695C12.7201 26.5767 14.7995 26.9404 16.8582 26.719C18.917 26.4976 20.8721 25.7001 22.5001 24.4176C21.1857 23.3834 20.1231 22.063 19.3929 20.5564C18.6627 19.0498 18.2839 17.3964 18.2852 15.7214Z" fill="#EB001B"/>
<path d="M40.356 15.7206C40.356 17.7964 39.7733 19.8303 38.6746 21.5897C37.576 23.3492 36.0056 24.7633 34.143 25.6704C32.2805 26.5775 30.2009 26.941 28.142 26.7193C26.0831 26.4976 24.128 25.6997 22.5001 24.4168C23.814 23.3816 24.8763 22.0609 25.6067 20.5542C26.3371 19.0476 26.7167 17.3943 26.7167 15.7191C26.7167 14.0439 26.3371 12.3906 25.6067 10.8839C24.8763 9.37726 23.814 8.05654 22.5001 7.02144C24.128 5.7385 26.0831 4.94058 28.142 4.71888C30.2009 4.49719 32.2805 4.86066 34.143 5.76775C36.0056 6.67484 37.576 8.08896 38.6746 9.84844C39.7733 11.6079 40.356 13.6418 40.356 15.7176V15.7206Z" fill="#F79E1B"/>
<path d="M39.3015 22.5731V22.2166H39.4456V22.1429H39.0808V22.2166H39.2371V22.5731H39.3015ZM40.0096 22.5731V22.1429H39.8993L39.7705 22.4501L39.6418 22.1429H39.5437V22.5731H39.6234V22.2504L39.7429 22.53H39.8257L39.9452 22.2504V22.5761L40.0096 22.5731Z" fill="#F79E1B"/>
</svg>
