<svg width="335" height="212" viewBox="0 0 335 212" fill="none" xmlns="http://www.w3.org/2000/svg">
<path d="M37.0841 132.28L36.6441 136.504L40.8681 135.316L41.1761 137.34L37.1281 137.67L39.7461 141.146L37.8541 142.18L35.9841 138.33L34.2901 142.18L32.3321 141.146L34.9061 137.67L30.9021 137.34L31.2101 135.316L35.3901 136.504L34.9281 132.28H37.0841ZM49.4213 132.28L48.9813 136.504L53.2053 135.316L53.5133 137.34L49.4653 137.67L52.0833 141.146L50.1913 142.18L48.3213 138.33L46.6273 142.18L44.6693 141.146L47.2433 137.67L43.2393 137.34L43.5473 135.316L47.7273 136.504L47.2653 132.28H49.4213ZM61.7585 132.28L61.3185 136.504L65.5425 135.316L65.8505 137.34L61.8025 137.67L64.4205 141.146L62.5285 142.18L60.6585 138.33L58.9645 142.18L57.0065 141.146L59.5805 137.67L55.5765 137.34L55.8845 135.316L60.0645 136.504L59.6025 132.28H61.7585ZM74.0957 132.28L73.6557 136.504L77.8797 135.316L78.1877 137.34L74.1397 137.67L76.7577 141.146L74.8657 142.18L72.9957 138.33L71.3017 142.18L69.3437 141.146L71.9177 137.67L67.9137 137.34L68.2217 135.316L72.4017 136.504L71.9397 132.28H74.0957ZM92.3677 132.28L91.9277 136.504L96.1517 135.316L96.4597 137.34L92.4117 137.67L95.0297 141.146L93.1377 142.18L91.2677 138.33L89.5737 142.18L87.6157 141.146L90.1897 137.67L86.1857 137.34L86.4937 135.316L90.6737 136.504L90.2117 132.28H92.3677ZM104.705 132.28L104.265 136.504L108.489 135.316L108.797 137.34L104.749 137.67L107.367 141.146L105.475 142.18L103.605 138.33L101.911 142.18L99.9529 141.146L102.527 137.67L98.5229 137.34L98.8309 135.316L103.011 136.504L102.549 132.28H104.705ZM117.042 132.28L116.602 136.504L120.826 135.316L121.134 137.34L117.086 137.67L119.704 141.146L117.812 142.18L115.942 138.33L114.248 142.18L112.29 141.146L114.864 137.67L110.86 137.34L111.168 135.316L115.348 136.504L114.886 132.28H117.042ZM129.379 132.28L128.939 136.504L133.163 135.316L133.471 137.34L129.423 137.67L132.041 141.146L130.149 142.18L128.279 138.33L126.585 142.18L124.627 141.146L127.201 137.67L123.197 137.34L123.505 135.316L127.685 136.504L127.223 132.28H129.379ZM147.651 132.28L147.211 136.504L151.435 135.316L151.743 137.34L147.695 137.67L150.313 141.146L148.421 142.18L146.551 138.33L144.857 142.18L142.899 141.146L145.473 137.67L141.469 137.34L141.777 135.316L145.957 136.504L145.495 132.28H147.651ZM159.988 132.28L159.548 136.504L163.772 135.316L164.08 137.34L160.032 137.67L162.65 141.146L160.758 142.18L158.888 138.33L157.194 142.18L155.236 141.146L157.81 137.67L153.806 137.34L154.114 135.316L158.294 136.504L157.832 132.28H159.988ZM172.326 132.28L171.886 136.504L176.11 135.316L176.418 137.34L172.37 137.67L174.988 141.146L173.096 142.18L171.226 138.33L169.532 142.18L167.574 141.146L170.148 137.67L166.144 137.34L166.452 135.316L170.632 136.504L170.17 132.28H172.326ZM184.663 132.28L184.223 136.504L188.447 135.316L188.755 137.34L184.707 137.67L187.325 141.146L185.433 142.18L183.563 138.33L181.869 142.18L179.911 141.146L182.485 137.67L178.481 137.34L178.789 135.316L182.969 136.504L182.507 132.28H184.663ZM201.901 139.364C203.5 139.364 204.776 139.767 205.729 140.574C206.697 141.381 207.181 142.517 207.181 143.984C207.181 145.612 206.66 146.895 205.619 147.834C204.592 148.758 203.155 149.22 201.307 149.22C200.486 149.22 199.723 149.147 199.019 149C198.315 148.853 197.721 148.641 197.237 148.362V146.536C197.765 146.859 198.403 147.115 199.151 147.306C199.914 147.482 200.64 147.57 201.329 147.57C202.488 147.57 203.419 147.299 204.123 146.756C204.842 146.199 205.201 145.341 205.201 144.182C205.201 143.155 204.886 142.371 204.255 141.828C203.624 141.271 202.627 140.992 201.263 140.992C200.852 140.992 200.383 141.029 199.855 141.102C199.327 141.175 198.902 141.249 198.579 141.322L197.611 140.706L198.205 133.292H206.081V135.052H199.855L199.481 139.606C199.73 139.562 200.068 139.511 200.493 139.452C200.918 139.393 201.388 139.364 201.901 139.364ZM214.931 133.072C216.309 133.072 217.439 133.395 218.319 134.04C219.199 134.685 219.639 135.617 219.639 136.834C219.639 137.465 219.499 138.015 219.221 138.484C218.957 138.953 218.597 139.371 218.143 139.738C217.688 140.09 217.189 140.405 216.647 140.684C217.292 141.007 217.879 141.359 218.407 141.74C218.935 142.121 219.353 142.569 219.661 143.082C219.983 143.595 220.145 144.211 220.145 144.93C220.145 146.25 219.675 147.299 218.737 148.076C217.798 148.839 216.551 149.22 214.997 149.22C213.295 149.22 211.99 148.853 211.081 148.12C210.186 147.372 209.739 146.331 209.739 144.996C209.739 144.292 209.885 143.676 210.179 143.148C210.487 142.605 210.89 142.143 211.389 141.762C211.887 141.381 212.423 141.058 212.995 140.794C212.217 140.354 211.565 139.826 211.037 139.21C210.509 138.579 210.245 137.78 210.245 136.812C210.245 136.02 210.45 135.345 210.861 134.788C211.271 134.231 211.829 133.805 212.533 133.512C213.237 133.219 214.036 133.072 214.931 133.072ZM214.909 134.634C214.087 134.634 213.42 134.832 212.907 135.228C212.393 135.609 212.137 136.167 212.137 136.9C212.137 137.443 212.261 137.897 212.511 138.264C212.775 138.631 213.127 138.946 213.567 139.21C214.007 139.459 214.491 139.701 215.019 139.936C215.781 139.613 216.419 139.225 216.933 138.77C217.461 138.315 217.725 137.692 217.725 136.9C217.725 136.167 217.468 135.609 216.955 135.228C216.441 134.832 215.759 134.634 214.909 134.634ZM211.631 145.018C211.631 145.781 211.902 146.419 212.445 146.932C212.987 147.431 213.823 147.68 214.953 147.68C216.023 147.68 216.837 147.431 217.395 146.932C217.967 146.419 218.253 145.759 218.253 144.952C218.253 144.189 217.952 143.559 217.351 143.06C216.749 142.547 215.95 142.099 214.953 141.718L214.601 141.586C213.633 142.011 212.892 142.488 212.379 143.016C211.88 143.544 211.631 144.211 211.631 145.018ZM224.463 149L230.909 135.052H222.439V133.292H232.977V134.788L226.597 149H224.463ZM237.272 149L243.718 135.052H235.248V133.292H245.786V134.788L239.406 149H237.272Z" fill="white"/>
<rect x="335" y="3.05176e-05" width="212" height="335" rx="17" transform="rotate(90 335 3.05176e-05)" fill="url(#paint0_linear)" fill-opacity="0.8" style="mix-blend-mode:soft-light"/>
<rect x="335" y="3.05176e-05" width="212" height="335" rx="17" transform="rotate(90 335 3.05176e-05)" fill="url(#paint1_linear)"/>
<mask id="mask0" mask-type="alpha" maskUnits="userSpaceOnUse" x="0" y="0" width="336" height="212">
<rect x="335" y="3.05176e-05" width="212" height="335" rx="17" transform="rotate(90 335 3.05176e-05)" fill="url(#paint2_linear)" fill-opacity="0.8"/>
<rect x="335" y="3.05176e-05" width="212" height="335" rx="17" transform="rotate(90 335 3.05176e-05)" fill="url(#paint3_linear)"/>
</mask>
<g mask="url(#mask0)">
<g filter="url(#filter0_f)">
<ellipse cx="284.351" cy="71.2188" rx="100.203" ry="76.1726" transform="rotate(90 284.351 71.2188)" fill="#1C5AF6"/>
</g>
<g filter="url(#filter1_f)">
<ellipse cx="66.6014" cy="21.1172" rx="75.7734" ry="95.3155" transform="rotate(90 66.6014 21.1172)" fill="#B0EAFA"/>
</g>
<g filter="url(#filter2_b)">
<rect x="335" y="3.05176e-05" width="212" height="335" rx="17" transform="rotate(90 335 3.05176e-05)" fill="white" fill-opacity="0.07" style="mix-blend-mode:soft-light"/>
</g>
</g>
<rect x="334.308" y="1.52588e-05" width="212" height="334.308" rx="17" transform="rotate(90 334.308 1.52588e-05)" fill="url(#paint4_linear)" fill-opacity="0.8" style="mix-blend-mode:soft-light"/>
<rect x="334.308" y="1.52588e-05" width="212" height="334.308" rx="17" transform="rotate(90 334.308 1.52588e-05)" fill="url(#paint5_linear)"/>
<mask id="mask1" mask-type="alpha" maskUnits="userSpaceOnUse" x="0" y="0" width="335" height="212">
<rect x="334.308" y="1.52588e-05" width="212" height="334.308" rx="17" transform="rotate(90 334.308 1.52588e-05)" fill="url(#paint6_linear)" fill-opacity="0.8"/>
<rect x="334.308" y="1.52588e-05" width="212" height="334.308" rx="17" transform="rotate(90 334.308 1.52588e-05)" fill="url(#paint7_linear)"/>
</mask>
<g mask="url(#mask1)">
<g filter="url(#filter3_f)">
<ellipse cx="283.763" cy="71.2188" rx="100.203" ry="76.0152" transform="rotate(90 283.763 71.2188)" fill="#F6BF76"/>
</g>
<g filter="url(#filter4_f)">
<ellipse cx="66.4638" cy="21.1172" rx="75.7734" ry="95.1185" transform="rotate(90 66.4638 21.1172)" fill="#EF898A"/>
</g>
<g filter="url(#filter5_b)">
<rect x="334.308" y="1.52588e-05" width="212" height="334.308" rx="17" transform="rotate(90 334.308 1.52588e-05)" fill="white" fill-opacity="0.07" style="mix-blend-mode:soft-light"/>
</g>
</g>
<rect x="20.0001" y="74" width="48" height="40" rx="10" fill="white" fill-opacity="0.3"/>
<path fill-rule="evenodd" clip-rule="evenodd" d="M305.555 82.2848C306.103 82.8324 306.615 83.4154 307.086 84.0291C307.787 84.9643 308.395 85.9675 308.897 87.0246C309.024 87.2884 309.141 87.5562 309.254 87.8256C309.577 88.6315 309.84 89.4594 310.043 90.3027C310.144 90.7302 310.231 91.1612 310.302 91.5976C310.31 91.6517 310.319 91.7062 310.327 91.7608C310.336 91.8153 310.344 91.8699 310.352 91.924C310.356 91.9488 310.359 91.9732 310.362 91.9976L310.362 91.9976C310.365 92.022 310.368 92.0464 310.371 92.0712L310.374 92.0871C310.378 92.1229 310.38 92.1383 310.381 92.1412C310.405 92.3432 310.426 92.5451 310.441 92.747C310.513 93.6216 310.522 94.4996 310.466 95.3759C310.451 95.5959 310.434 95.8123 310.411 96.0305C310.401 96.1313 310.39 96.2306 310.378 96.3298C310.378 96.3255 310.378 96.3293 310.375 96.3462C310.371 96.3764 310.368 96.4061 310.364 96.4358C310.36 96.4655 310.356 96.4952 310.352 96.5254C310.29 96.96 310.212 97.3928 310.118 97.8238C309.907 98.7879 309.614 99.7327 309.244 100.65C308.799 101.712 308.252 102.732 307.61 103.688C307.439 103.943 307.261 104.191 307.077 104.436C306.609 105.045 306.101 105.623 305.557 106.166C305.279 106.445 305.257 106.956 305.557 107.231C305.857 107.506 306.324 107.529 306.622 107.231C307.971 105.877 309.124 104.309 309.994 102.606C310.833 100.962 311.43 99.1862 311.739 97.3626C312.053 95.4948 312.081 93.6145 311.837 91.7377C311.597 89.9053 311.062 88.1244 310.288 86.4463C309.49 84.7185 308.402 83.1238 307.111 81.726C306.952 81.5529 306.788 81.385 306.625 81.2189L306.625 81.2188L306.623 81.2169C306.345 80.9384 305.834 80.9172 305.559 81.2169C305.281 81.5203 305.259 81.985 305.555 82.2848ZM310.378 92.1138L310.374 92.0871L310.366 92.0198L310.369 92.0437C310.371 92.0601 310.373 92.0765 310.375 92.0925L310.378 92.1138ZM310.378 92.1138L310.381 92.1412C310.381 92.1422 310.381 92.1417 310.381 92.1401L310.378 92.1138ZM306.998 83.9114L307.055 83.9873C307.036 83.9623 307.017 83.9373 306.998 83.9114ZM309.309 100.492C309.292 100.534 309.274 100.576 309.257 100.619L309.309 100.492ZM306.999 104.54C307.014 104.52 307.029 104.5 307.044 104.48L306.999 104.54ZM298.219 89.6252C298.429 89.8356 298.625 90.0579 298.809 90.292C299.138 90.7405 299.416 91.2232 299.635 91.7343C299.762 92.0572 299.867 92.3866 299.948 92.7241C299.989 92.8962 300.025 93.0665 300.053 93.2403C300.057 93.2616 300.06 93.2833 300.063 93.305C300.065 93.3238 300.068 93.3426 300.071 93.3611C300.073 93.376 300.076 93.3973 300.079 93.417C300.079 93.4222 300.08 93.4272 300.081 93.4322L300.082 93.4434L300.082 93.4458C300.083 93.4564 300.083 93.4658 300.083 93.4727C300.088 93.5205 300.092 93.5702 300.096 93.6198L300.096 93.6199C300.126 93.9729 300.129 94.3312 300.106 94.6842C300.101 94.7711 300.094 94.8598 300.085 94.9467C300.083 94.9741 300.08 95.0021 300.076 95.0304C300.068 95.0864 300.064 95.1158 300.063 95.1284C300.038 95.2863 300.009 95.4429 299.975 95.5995C299.892 95.9786 299.776 96.3496 299.636 96.7096C299.415 97.222 299.138 97.7081 298.807 98.1587C298.623 98.3928 298.426 98.6139 298.217 98.8262C297.939 99.1047 297.917 99.6155 298.217 99.8905C298.517 100.165 298.983 100.189 299.281 99.8905C300.427 98.7375 301.234 97.2315 301.504 95.6244C301.781 93.9853 301.563 92.3268 300.867 90.8154C300.482 89.9799 299.931 89.2118 299.281 88.5591C299.003 88.2806 298.492 88.2593 298.217 88.5591C297.942 88.8624 297.921 89.3271 298.219 89.6252ZM300.071 95.0754L300.076 95.0304L300.083 94.984L300.078 95.0248L300.072 95.0656L300.071 95.0754ZM300.071 95.0754L300.063 95.1284C300.06 95.1541 300.067 95.1099 300.071 95.078L300.071 95.0779L300.071 95.0754ZM300.082 93.4428C300.082 93.407 300.081 93.3587 300.069 93.3414C300.069 93.3411 300.069 93.349 300.071 93.3611L300.072 93.3698C300.074 93.3804 300.076 93.3915 300.077 93.4026L300.079 93.417L300.081 93.4322C300.081 93.4333 300.081 93.4344 300.081 93.4354C300.082 93.4381 300.082 93.4405 300.082 93.4428ZM300.082 93.4434C300.082 93.4432 300.082 93.443 300.082 93.4428C300.088 93.4828 300.086 93.4706 300.082 93.4434ZM298.739 90.1981L298.77 90.2403C298.76 90.2264 298.749 90.2124 298.739 90.1981ZM299.689 91.8655L299.657 91.7872C299.668 91.8133 299.679 91.8394 299.689 91.8655ZM298.737 98.2532C298.747 98.2391 298.758 98.2253 298.768 98.2115L298.737 98.2532ZM302.991 87.1385C302.66 86.7118 302.303 86.3051 301.921 85.9232C301.623 85.6252 301.644 85.1604 301.917 84.8589C302.192 84.5591 302.703 84.5804 302.982 84.8589C303.102 84.9795 303.221 85.1019 303.337 85.2278C304.262 86.2318 305.045 87.376 305.618 88.6159C306.175 89.8221 306.56 91.0975 306.733 92.4137C306.914 93.7796 306.893 95.1384 306.666 96.4972C306.446 97.8098 306.012 99.0888 305.407 100.275C304.784 101.498 303.954 102.622 302.985 103.594C302.687 103.892 302.221 103.869 301.921 103.594C301.621 103.319 301.643 102.809 301.921 102.53C302.303 102.148 302.66 101.741 302.991 101.315C303.593 100.505 304.095 99.6248 304.488 98.6945C304.744 98.0538 304.949 97.3897 305.096 96.7153C305.162 96.4156 305.217 96.1122 305.259 95.8071C305.26 95.7998 305.262 95.7921 305.263 95.7842C305.264 95.7802 305.264 95.7754 305.265 95.7699L305.27 95.722C305.281 95.651 305.288 95.5801 305.295 95.5091C305.311 95.3512 305.323 95.1934 305.334 95.0337C305.375 94.4146 305.368 93.7938 305.316 93.1783C305.307 93.0467 305.293 92.9152 305.277 92.7837C305.285 92.8386 305.279 92.7844 305.274 92.749C305.273 92.7436 305.272 92.7383 305.272 92.7331C305.271 92.7289 305.271 92.7248 305.27 92.7206L305.27 92.7206C305.268 92.71 305.267 92.6989 305.266 92.6878C305.264 92.6767 305.263 92.6656 305.261 92.655C305.262 92.665 305.264 92.6745 305.265 92.6833C305.262 92.6666 305.26 92.6502 305.258 92.6338L305.258 92.6337L305.226 92.4208C305.174 92.1104 305.114 91.8017 305.041 91.4984C304.9 90.9048 304.715 90.3245 304.489 89.761C304.096 88.8298 303.593 87.9485 302.991 87.1385ZM302.904 87.023C302.921 87.0456 302.938 87.0682 302.955 87.0909C302.938 87.0686 302.921 87.0461 302.904 87.023ZM304.545 89.8948L304.516 89.8255C304.526 89.8486 304.535 89.8717 304.545 89.8948ZM305.265 92.6833C305.271 92.7331 305.275 92.7648 305.277 92.7837C305.275 92.7668 305.273 92.7499 305.272 92.7331C305.269 92.716 305.267 92.6995 305.265 92.6833ZM305.263 95.7824C305.265 95.7763 305.266 95.77 305.267 95.7636C305.273 95.7334 305.28 95.7019 305.277 95.6759C305.276 95.6748 305.268 95.7462 305.263 95.7824ZM304.545 98.5584C304.535 98.5816 304.526 98.6047 304.516 98.6278L304.545 98.5584ZM302.904 101.43C302.921 101.407 302.938 101.385 302.955 101.362C302.938 101.385 302.921 101.408 302.904 101.43Z" fill="white" fill-opacity="0.4"/>
<defs>
<filter id="filter0_f" x="134.178" y="-102.984" width="300.345" height="348.406" filterUnits="userSpaceOnUse" color-interpolation-filters="sRGB">
<feFlood flood-opacity="0" result="BackgroundImageFix"/>
<feBlend mode="normal" in="SourceGraphic" in2="BackgroundImageFix" result="shape"/>
<feGaussianBlur stdDeviation="37" result="effect1_foregroundBlur"/>
</filter>
<filter id="filter1_f" x="-152.714" y="-178.656" width="438.631" height="399.547" filterUnits="userSpaceOnUse" color-interpolation-filters="sRGB">
<feFlood flood-opacity="0" result="BackgroundImageFix"/>
<feBlend mode="normal" in="SourceGraphic" in2="BackgroundImageFix" result="shape"/>
<feGaussianBlur stdDeviation="62" result="effect1_foregroundBlur"/>
</filter>
<filter id="filter2_b" x="-39.9999" y="-40" width="415" height="292" filterUnits="userSpaceOnUse" color-interpolation-filters="sRGB">
<feFlood flood-opacity="0" result="BackgroundImageFix"/>
<feGaussianBlur in="BackgroundImage" stdDeviation="20"/>
<feComposite in2="SourceAlpha" operator="in" result="effect1_backgroundBlur"/>
<feBlend mode="normal" in="SourceGraphic" in2="effect1_backgroundBlur" result="shape"/>
</filter>
<filter id="filter3_f" x="133.748" y="-102.984" width="300.03" height="348.406" filterUnits="userSpaceOnUse" color-interpolation-filters="sRGB">
<feFlood flood-opacity="0" result="BackgroundImageFix"/>
<feBlend mode="normal" in="SourceGraphic" in2="BackgroundImageFix" result="shape"/>
<feGaussianBlur stdDeviation="37" result="effect1_foregroundBlur"/>
</filter>
<filter id="filter4_f" x="-152.655" y="-178.656" width="438.237" height="399.547" filterUnits="userSpaceOnUse" color-interpolation-filters="sRGB">
<feFlood flood-opacity="0" result="BackgroundImageFix"/>
<feBlend mode="normal" in="SourceGraphic" in2="BackgroundImageFix" result="shape"/>
<feGaussianBlur stdDeviation="62" result="effect1_foregroundBlur"/>
</filter>
<filter id="filter5_b" x="-40" y="-40" width="414.308" height="292" filterUnits="userSpaceOnUse" color-interpolation-filters="sRGB">
<feFlood flood-opacity="0" result="BackgroundImageFix"/>
<feGaussianBlur in="BackgroundImage" stdDeviation="20"/>
<feComposite in2="SourceAlpha" operator="in" result="effect1_backgroundBlur"/>
<feBlend mode="normal" in="SourceGraphic" in2="effect1_backgroundBlur" result="shape"/>
</filter>
<linearGradient id="paint0_linear" x1="535.406" y1="5.58336" x2="345.664" y2="322.247" gradientUnits="userSpaceOnUse">
<stop stop-color="#55C0F7"/>
<stop offset="1" stop-color="#A8E8FA"/>
</linearGradient>
<linearGradient id="paint1_linear" x1="341.625" y1="4.78574" x2="530.624" y2="341.176" gradientUnits="userSpaceOnUse">
<stop stop-color="#1B5CF6"/>
<stop offset="0.503297" stop-color="#429EFF"/>
<stop offset="1" stop-color="#CB5BAA"/>
</linearGradient>
<linearGradient id="paint2_linear" x1="535.406" y1="5.58336" x2="345.664" y2="322.247" gradientUnits="userSpaceOnUse">
<stop stop-color="#55C0F7"/>
<stop offset="1" stop-color="#A8E8FA"/>
</linearGradient>
<linearGradient id="paint3_linear" x1="341.625" y1="4.78574" x2="530.624" y2="341.176" gradientUnits="userSpaceOnUse">
<stop stop-color="#1B5CF6"/>
<stop offset="0.503297" stop-color="#429EFF"/>
<stop offset="0.890632" stop-color="#D33BA7"/>
</linearGradient>
<linearGradient id="paint4_linear" x1="534.714" y1="5.57181" x2="345.549" y2="321.926" gradientUnits="userSpaceOnUse">
<stop stop-color="#55C0F7"/>
<stop offset="1" stop-color="#A8E8FA"/>
</linearGradient>
<linearGradient id="paint5_linear" x1="340.933" y1="4.77584" x2="529.338" y2="340.804" gradientUnits="userSpaceOnUse">
<stop stop-color="#F3AC6E"/>
<stop offset="0.503297" stop-color="#EC6531"/>
<stop offset="1" stop-color="#ED6F2F"/>
</linearGradient>
<linearGradient id="paint6_linear" x1="534.714" y1="5.57181" x2="345.549" y2="321.926" gradientUnits="userSpaceOnUse">
<stop stop-color="#55C0F7"/>
<stop offset="1" stop-color="#A8E8FA"/>
</linearGradient>
<linearGradient id="paint7_linear" x1="340.933" y1="4.77584" x2="529.338" y2="340.804" gradientUnits="userSpaceOnUse">
<stop stop-color="#1B5CF6"/>
<stop offset="0.503297" stop-color="#429EFF"/>
<stop offset="0.890632" stop-color="#D33BA7"/>
</linearGradient>
</defs>
</svg>
