<svg width="30" height="30" viewBox="0 0 30 30" fill="none" xmlns="http://www.w3.org/2000/svg">
<g clip-path="url(#clip0)">
<path d="M29.9998 6.92748V23.0723C29.9998 26.8985 26.8985 29.9998 23.0723 29.9998H6.92748C3.10137 29.9998 0 26.8985 0 23.0723V6.92748C0 3.10137 3.10137 0 6.92748 0H23.0723C26.8985 0 29.9998 3.10137 29.9998 6.92748Z" fill="url(#paint0_linear)"/>
<path d="M6.92748 29.7654C3.23689 29.7654 0.234375 26.7629 0.234375 23.0723V6.92748C0.234375 3.23689 3.23689 0.234375 6.92748 0.234375H23.0723C26.7629 0.234375 29.7654 3.23689 29.7654 6.92748V23.0723C29.7654 26.7629 26.7629 29.7654 23.0723 29.7654H6.92748V29.7654Z" fill="url(#paint1_linear)"/>
<path opacity="0.5" d="M29.9995 15.7376V23.0729C29.9995 26.8991 26.8982 30.0005 23.0721 30.0005H12.4139L5.10083 22.6874L21.1214 6.85962L29.7652 15.5033L29.9995 15.7376Z" fill="url(#paint2_linear)"/>
<path opacity="0.3" d="M24.4192 16.4755L10.8313 22.5677C10.1448 22.8754 9.33872 22.5684 9.03092 21.8819L5.92827 14.9617C5.62047 14.2752 5.9275 13.4691 6.61399 13.1613L20.2019 7.06926C20.8884 6.76146 21.6944 7.0685 22.0022 7.75498L25.1049 14.6753C25.4126 15.3617 25.1056 16.1678 24.4192 16.4755Z" fill="#1A1A1A"/>
<path d="M24.0597 16.3813L10.4718 22.4734C9.78529 22.7812 8.97922 22.4741 8.67143 21.7876L5.56877 14.8674C5.26098 14.1809 5.56801 13.3749 6.25449 13.0671L19.8424 6.97502C20.5289 6.66723 21.3349 6.97426 21.6427 7.66074L24.7454 14.581C25.0532 15.2674 24.7462 16.0735 24.0597 16.3813Z" fill="url(#paint3_linear)"/>
<path d="M23.9425 16.1274L10.3546 22.2195C9.66816 22.5272 8.86209 22.2202 8.5543 21.5337L5.45158 14.6135C5.14379 13.927 5.45082 13.121 6.1373 12.8132L19.7252 6.72111C20.4117 6.41332 21.2178 6.72035 21.5255 7.40684L24.6283 14.3271C24.9361 15.0137 24.629 15.8196 23.9425 16.1274Z" fill="url(#paint4_linear)"/>
<path d="M9.79767 22.2218C9.30748 22.2218 8.86123 21.9329 8.66078 21.4858L5.55812 14.5656C5.27728 13.9391 5.55847 13.201 6.18484 12.9201L19.7728 6.82797C19.9345 6.75549 20.1057 6.71875 20.2814 6.71875C20.7716 6.71875 21.2178 7.00768 21.4183 7.45475L24.521 14.375C24.8018 15.0014 24.5206 15.7396 23.8942 16.0204L10.3063 22.1126C10.1446 22.1851 9.97351 22.2218 9.79767 22.2218Z" fill="url(#paint5_linear)"/>
<path d="M6.21402 16.3128L22.2883 9.1062L21.4685 7.27763L5.39422 14.4842L6.21402 16.3128Z" fill="#1A1A1A"/>
<path d="M21.7285 11.5462L16.6615 13.818C16.4094 13.931 16.1133 13.8183 16.0002 13.5661C15.8872 13.314 15.9999 13.0179 16.2521 12.9048L21.3191 10.633C21.5712 10.52 21.8673 10.6327 21.9804 10.8849C22.0934 11.137 21.9806 11.4331 21.7285 11.5462Z" fill="url(#paint6_linear)"/>
<path d="M21.6003 11.4962L16.5333 13.768C16.2812 13.881 15.9851 13.7682 15.872 13.5161C15.759 13.2639 15.8717 12.9679 16.1239 12.8548L21.191 10.583C21.4431 10.4699 21.7392 10.5827 21.8523 10.8349C21.9652 11.087 21.8525 11.3831 21.6003 11.4962Z" fill="#B3B3B3"/>
<path d="M11.5994 17.4963C11.2449 17.6553 10.9879 17.9421 10.8581 18.278C10.521 18.1514 10.1359 18.1524 9.78138 18.3114C9.068 18.6313 8.74896 19.4689 9.06882 20.1822C9.38869 20.8956 10.2263 21.2147 10.9397 20.8948C11.2942 20.7358 11.5511 20.449 11.6809 20.1131C12.018 20.2397 12.4032 20.2387 12.7577 20.0797C13.471 19.7598 13.7901 18.9223 13.4702 18.2089C13.1504 17.4955 12.3128 17.1765 11.5994 17.4963Z" fill="url(#paint7_linear)"/>
<path d="M11.4751 17.4446C11.1206 17.6035 10.8636 17.8903 10.7338 18.2263C10.3967 18.0996 10.0116 18.1007 9.65712 18.2597C8.94374 18.5795 8.62469 19.4171 8.94456 20.1305C9.26442 20.8439 10.102 21.1629 10.8154 20.8431C11.1699 20.6841 11.4269 20.3973 11.5567 20.0614C11.8938 20.1879 12.2789 20.1869 12.6334 20.028C13.3468 19.7081 13.6658 18.8705 13.3459 18.1571C13.0261 17.4437 12.1885 17.1247 11.4751 17.4446Z" fill="#B3B3B3"/>
<path d="M21.5379 11.3521L16.4708 13.6239C16.2187 13.7369 15.9226 13.6242 15.8095 13.372C15.6965 13.1199 15.8092 12.8238 16.0614 12.7107L21.1284 10.4389C21.3806 10.3259 21.6766 10.4386 21.7897 10.6908C21.9028 10.9429 21.79 11.239 21.5379 11.3521Z" fill="white"/>
<path d="M11.4087 17.3005C11.0542 17.4595 10.7972 17.7463 10.6674 18.0822C10.3303 17.9556 9.9452 17.9566 9.59071 18.1156C8.87733 18.4355 8.55829 19.2731 8.87815 19.9865C9.19801 20.6998 10.0356 21.0189 10.749 20.699C11.1035 20.54 11.3605 20.2532 11.4903 19.9173C11.8273 20.0439 12.2125 20.0429 12.567 19.8839C13.2804 19.564 13.5994 18.7265 13.2795 18.0131C12.9597 17.2997 12.1221 16.9807 11.4087 17.3005Z" fill="white"/>
<path d="M6.14444 16.1558L22.2188 8.94922L21.4704 7.27998L5.39608 14.4866L6.14444 16.1558Z" fill="#333333"/>
<path opacity="0.3" d="M21.265 23.3905H6.37396C5.62162 23.3905 5.01172 22.7806 5.01172 22.0282V14.4443C5.01172 13.6919 5.62162 13.082 6.37396 13.082H21.265C22.0174 13.082 22.6273 13.6919 22.6273 14.4443V22.0282C22.6273 22.7806 22.0174 23.3905 21.265 23.3905Z" fill="#1A1A1A"/>
<path d="M20.9721 23.0975H6.081C5.32865 23.0975 4.71875 22.4876 4.71875 21.7353V14.1513C4.71875 13.399 5.32865 12.7891 6.081 12.7891H20.9721C21.7244 12.7891 22.3343 13.399 22.3343 14.1513V21.7353C22.3343 22.4876 21.7244 23.0975 20.9721 23.0975Z" fill="url(#paint8_linear)"/>
<path d="M20.9721 22.8201H6.081C5.32865 22.8201 4.71875 22.2102 4.71875 21.4579V13.874C4.71875 13.1216 5.32865 12.5117 6.081 12.5117H20.9721C21.7244 12.5117 22.3343 13.1216 22.3343 13.874V21.4579C22.3343 22.2103 21.7244 22.8201 20.9721 22.8201Z" fill="url(#paint9_linear)"/>
<path d="M6.08197 22.703C5.39543 22.703 4.83691 22.1445 4.83691 21.4579V13.8739C4.83691 13.1874 5.39543 12.6289 6.08197 12.6289H20.973C21.6596 12.6289 22.2181 13.1874 22.2181 13.8739V21.4579C22.2181 22.1445 21.6596 22.703 20.973 22.703H6.08197Z" fill="url(#paint10_linear)"/>
<path d="M22.3343 13.7305H4.71875V15.7344H22.3343V13.7305Z" fill="#1A1A1A"/>
<path d="M20.8277 17.732H15.2747C14.9984 17.732 14.7743 17.508 14.7743 17.2316C14.7743 16.9553 14.9983 16.7312 15.2747 16.7312H20.8277C21.104 16.7312 21.3281 16.9552 21.3281 17.2316C21.3281 17.508 21.1041 17.732 20.8277 17.732Z" fill="url(#paint11_linear)"/>
<path d="M20.7292 17.6336H15.1762C14.8998 17.6336 14.6758 17.4096 14.6758 17.1332C14.6758 16.8569 14.8998 16.6328 15.1762 16.6328H20.7292C21.0055 16.6328 21.2296 16.8568 21.2296 17.1332C21.2296 17.4096 21.0055 17.6336 20.7292 17.6336Z" fill="#B3B3B3"/>
<path d="M9.15012 19.0156C8.76159 19.0156 8.40973 19.1722 8.15397 19.4257C7.89815 19.1722 7.54629 19.0156 7.15781 19.0156C6.376 19.0156 5.74219 19.6494 5.74219 20.4313C5.74219 21.2131 6.376 21.8469 7.15781 21.8469C7.54635 21.8469 7.89821 21.6903 8.15397 21.4368C8.40979 21.6903 8.76164 21.8469 9.15012 21.8469C9.93194 21.8469 10.5657 21.2131 10.5657 20.4313C10.5657 19.6494 9.93194 19.0156 9.15012 19.0156Z" fill="url(#paint12_linear)"/>
<path d="M9.05246 18.9219C8.66393 18.9219 8.31207 19.0785 8.05631 19.3319C7.80049 19.0785 7.44863 18.9219 7.06016 18.9219C6.27834 18.9219 5.64453 19.5557 5.64453 20.3375C5.64453 21.1193 6.27834 21.7531 7.06016 21.7531C7.44869 21.7531 7.80055 21.5965 8.05631 21.3431C8.31213 21.5965 8.66398 21.7531 9.05246 21.7531C9.83428 21.7531 10.4681 21.1193 10.4681 20.3375C10.4681 19.5557 9.83428 18.9219 9.05246 18.9219Z" fill="#B3B3B3"/>
<path d="M20.729 17.4773H15.1761C14.8997 17.4773 14.6757 17.2533 14.6757 16.977C14.6757 16.7006 14.8997 16.4766 15.1761 16.4766H20.729C21.0054 16.4766 21.2294 16.7006 21.2294 16.977C21.2294 17.2533 21.0054 17.4773 20.729 17.4773Z" fill="white"/>
<path d="M9.05246 18.7627C8.66393 18.7627 8.31207 18.9193 8.05631 19.1727C7.80049 18.9193 7.44863 18.7627 7.06016 18.7627C6.27834 18.7627 5.64453 19.3965 5.64453 20.1783C5.64453 20.9601 6.27834 21.5939 7.06016 21.5939C7.44869 21.5939 7.80055 21.4373 8.05631 21.1839C8.31213 21.4373 8.66398 21.5939 9.05246 21.5939C9.83428 21.5939 10.4681 20.9601 10.4681 20.1783C10.4681 19.3964 9.83428 18.7627 9.05246 18.7627Z" fill="white"/>
<path d="M22.3343 13.7305H4.71875V15.5598H22.3343V13.7305Z" fill="#333333"/>
</g>
<defs>
<linearGradient id="paint0_linear" x1="15" y1="0.292793" x2="15" y2="30.1779" gradientUnits="userSpaceOnUse">
<stop stop-color="#928DDB"/>
<stop offset="1" stop-color="#614492"/>
</linearGradient>
<linearGradient id="paint1_linear" x1="15" y1="0.522598" x2="15" y2="29.9406" gradientUnits="userSpaceOnUse">
<stop stop-color="#746DD1"/>
<stop offset="1" stop-color="#522563"/>
</linearGradient>
<linearGradient id="paint2_linear" x1="12.4312" y1="14.0934" x2="29.0021" y2="30.6643" gradientUnits="userSpaceOnUse">
<stop stop-color="#541759"/>
<stop offset="1" stop-color="#5E2563" stop-opacity="0"/>
</linearGradient>
<linearGradient id="paint3_linear" x1="13.2159" y1="10.3949" x2="17.5413" y2="20.0412" gradientUnits="userSpaceOnUse">
<stop offset="0.006" stop-color="#3F8996"/>
<stop offset="1" stop-color="#1B7296"/>
</linearGradient>
<linearGradient id="paint4_linear" x1="13.099" y1="10.1406" x2="17.4238" y2="19.7875" gradientUnits="userSpaceOnUse">
<stop offset="0.006" stop-color="#6BE8FF"/>
<stop offset="1" stop-color="#2EC1FF"/>
</linearGradient>
<linearGradient id="paint5_linear" x1="13.1426" y1="10.2391" x2="17.3695" y2="19.6668" gradientUnits="userSpaceOnUse">
<stop offset="0.006" stop-color="#5FCEE2"/>
<stop offset="1" stop-color="#29ABE2"/>
</linearGradient>
<linearGradient id="paint6_linear" x1="16.0002" y1="13.5659" x2="21.9805" y2="10.8849" gradientUnits="userSpaceOnUse">
<stop offset="0.006" stop-color="#3F8996"/>
<stop offset="1" stop-color="#1B7296"/>
</linearGradient>
<linearGradient id="paint7_linear" x1="9.06888" y1="20.1822" x2="13.4703" y2="18.2088" gradientUnits="userSpaceOnUse">
<stop offset="0.006" stop-color="#3F8996"/>
<stop offset="1" stop-color="#1B7296"/>
</linearGradient>
<linearGradient id="paint8_linear" x1="13.5266" y1="13.198" x2="13.5266" y2="23.7701" gradientUnits="userSpaceOnUse">
<stop stop-color="#BF9535"/>
<stop offset="0.995" stop-color="#BF7D35"/>
</linearGradient>
<linearGradient id="paint9_linear" x1="13.5266" y1="12.9208" x2="13.5266" y2="23.4923" gradientUnits="userSpaceOnUse">
<stop stop-color="#FFD36E"/>
<stop offset="0.995" stop-color="#FFBA6E"/>
</linearGradient>
<linearGradient id="paint10_linear" x1="13.5276" y1="13.0286" x2="13.5276" y2="23.3599" gradientUnits="userSpaceOnUse">
<stop stop-color="#FFC746"/>
<stop offset="0.995" stop-color="#FFA746"/>
</linearGradient>
<linearGradient id="paint11_linear" x1="15.337" y1="12.853" x2="21.8908" y2="23.4251" gradientUnits="userSpaceOnUse">
<stop stop-color="#BF9535"/>
<stop offset="0.995" stop-color="#BF7D35"/>
</linearGradient>
<linearGradient id="paint12_linear" x1="5.00739" y1="13.5344" x2="9.83082" y2="24.1064" gradientUnits="userSpaceOnUse">
<stop stop-color="#BF9535"/>
<stop offset="0.995" stop-color="#BF7D35"/>
</linearGradient>
<clipPath id="clip0">
<rect width="30" height="30" fill="white"/>
</clipPath>
</defs>
</svg>
