<svg width="30" height="30" viewBox="0 0 30 30" fill="none" xmlns="http://www.w3.org/2000/svg">
<g clip-path="url(#clip0)">
<path d="M30 6.92754V23.0725C30 26.8986 26.8986 30 23.0725 30H6.92754C3.10137 30 0 26.8986 0 23.0725V6.92754C0 3.10137 3.10137 0 6.92754 0H23.0725C26.8986 0 30 3.10137 30 6.92754Z" fill="url(#paint0_linear)"/>
<path d="M6.92754 29.7656C3.23689 29.7656 0.234375 26.7631 0.234375 23.0725V6.92754C0.234375 3.23689 3.23689 0.234375 6.92754 0.234375H23.0725C26.7631 0.234375 29.7656 3.23689 29.7656 6.92754V23.0725C29.7656 26.7631 26.7631 29.7656 23.0725 29.7656H6.92754Z" fill="url(#paint1_linear)"/>
<path opacity="0.3" d="M24.4141 14.2297L23.4541 14.0626C23.0117 13.9855 22.639 13.6817 22.4848 13.2598C22.4106 13.0566 22.3279 12.8574 22.2373 12.6626C22.0475 12.2545 22.0949 11.7752 22.3539 11.4071L22.9147 10.6098C23.1012 10.3446 23.07 9.98374 22.8407 9.75452L21.4262 8.34001C21.197 8.11079 20.8361 8.07956 20.5709 8.26606L19.7736 8.82687C19.4054 9.08585 18.9263 9.13325 18.5182 8.94341C18.3234 8.85282 18.1242 8.77021 17.921 8.69591C17.4991 8.54175 17.1952 8.16903 17.1182 7.72659L16.951 6.76665C16.8954 6.44726 16.6181 6.21411 16.2939 6.21411H14.2935C13.9693 6.21411 13.6921 6.44726 13.6365 6.76665L13.4693 7.72659C13.3923 8.16909 13.0884 8.54175 12.6665 8.69591C12.4633 8.77015 12.2641 8.85282 12.0693 8.94341C11.6612 9.13325 11.182 9.08585 10.8138 8.82687L10.0166 8.26606C9.75136 8.07956 9.39048 8.11073 9.16126 8.34001L7.74675 9.75452C7.51753 9.98374 7.4863 10.3447 7.6728 10.6098L8.2336 11.4071C8.49259 11.7752 8.53999 12.2545 8.35015 12.6626C8.25956 12.8574 8.17694 13.0565 8.10265 13.2598C7.94849 13.6817 7.57577 13.9855 7.13333 14.0626L6.17339 14.2297C5.85399 14.2853 5.62085 14.5626 5.62085 14.8868V16.8872C5.62085 17.2114 5.85399 17.4886 6.17339 17.5443L7.13333 17.7114C7.57583 17.7885 7.94849 18.0924 8.10265 18.5142C8.17688 18.7174 8.25956 18.9167 8.35015 19.1114C8.53999 19.5195 8.49259 19.9988 8.2336 20.3669L7.6728 21.1642C7.4863 21.4294 7.51747 21.7903 7.74675 22.0195L9.16126 23.434C9.39048 23.6632 9.75142 23.6944 10.0166 23.5079L10.8138 22.9471C11.182 22.6882 11.6612 22.6408 12.0693 22.8306C12.2641 22.9212 12.4633 23.0038 12.6665 23.0781C13.0884 23.2323 13.3923 23.605 13.4693 24.0474L13.6365 25.0074C13.6921 25.3267 13.9693 25.5599 14.2935 25.5599H16.2939C16.6181 25.5599 16.8953 25.3267 16.951 25.0074L17.1182 24.0474C17.1952 23.6049 17.4991 23.2323 17.921 23.0781C18.1242 23.0039 18.3234 22.9212 18.5182 22.8306C18.9263 22.6408 19.4055 22.6882 19.7736 22.9471L20.5709 23.5079C20.8361 23.6944 21.197 23.6633 21.4262 23.434L22.8407 22.0195C23.07 21.7903 23.1012 21.4294 22.9147 21.1642L22.3539 20.3669C22.0949 19.9987 22.0475 19.5195 22.2373 19.1114C22.3279 18.9167 22.4105 18.7175 22.4848 18.5142C22.639 18.0924 23.0117 17.7885 23.4541 17.7114L24.4141 17.5443C24.7335 17.4887 24.9666 17.2114 24.9666 16.8872V14.8868C24.9666 14.5626 24.7334 14.2853 24.4141 14.2297Z" fill="#1A1A1A"/>
<path opacity="0.5" d="M30.0016 15.8117V23.0738C30.0016 26.9 26.9002 30.0013 23.074 30.0013H15.8125L15.5781 29.7669L7.72187 21.9101L9.10234 20.5296L5.53809 16.9648L16.5182 5.06335L20.5305 9.10152L21.9109 7.72105L29.7672 15.5773L30.0016 15.8117Z" fill="url(#paint2_linear)"/>
<path d="M24.1212 13.8554L23.1613 13.6882C22.7188 13.6112 22.3462 13.3073 22.192 12.8854C22.1178 12.6822 22.0351 12.483 21.9445 12.2883C21.7546 11.8802 21.8021 11.4009 22.061 11.0328L22.6218 10.2355C22.7113 10.1083 22.7501 9.95922 22.7416 9.81314H22.743V8.84559H22.0132L21.1334 7.96574C20.9042 7.73652 20.5433 7.70529 20.2781 7.8918L19.4808 8.4526C19.1127 8.71158 18.6334 8.75898 18.2253 8.56914C18.0305 8.47855 17.8313 8.39594 17.6281 8.32164C17.2063 8.16748 16.9024 7.79477 16.8253 7.35232L16.6582 6.39238C16.6026 6.07299 16.3253 5.83984 16.0012 5.83984H14.0008C13.6766 5.83984 13.3994 6.07299 13.3438 6.39238L13.1766 7.35232C13.0995 7.79482 12.7957 8.16748 12.3738 8.32164C12.1706 8.39588 11.9714 8.47855 11.7766 8.56914C11.3685 8.75898 10.8893 8.71158 10.5211 8.4526L9.72383 7.8918C9.45863 7.70529 9.09775 7.73647 8.86854 7.96574L7.98764 8.84664H7.25832V9.79791H7.26096C7.24871 9.94885 7.2875 10.1039 7.38008 10.2355L7.94088 11.0328C8.19986 11.4009 8.24727 11.8802 8.05742 12.2883C7.96684 12.483 7.88422 12.6822 7.80992 12.8854C7.65576 13.3073 7.28305 13.6112 6.84061 13.6882L5.88066 13.8554C5.56127 13.911 5.32812 14.1883 5.32812 14.5125V16.5129C5.32812 16.8371 5.56127 17.1143 5.88061 17.1699L6.84055 17.3371C7.28305 17.4142 7.6557 17.718 7.80986 18.1399C7.8841 18.3431 7.96678 18.5423 8.05736 18.7371C8.24721 19.1452 8.1998 19.6244 7.94082 19.9926L7.77014 20.2353H7.25832V21.1865H7.25914C7.26248 21.354 7.32816 21.5194 7.45396 21.6452L8.86848 23.0597C9.0977 23.2889 9.45857 23.3201 9.72377 23.1336L10.5211 22.5728C10.8892 22.3138 11.3684 22.2664 11.7765 22.4562C11.9713 22.5468 12.1705 22.6294 12.3737 22.7037C12.7956 22.8579 13.0994 23.2306 13.1765 23.673L13.3437 24.633C13.3993 24.9524 13.6766 25.1855 14.0008 25.1855H16.0012C16.3254 25.1855 16.6026 24.9524 16.6582 24.633L16.8254 23.673C16.9024 23.2305 17.2063 22.8579 17.6282 22.7037C17.8314 22.6294 18.0306 22.5468 18.2254 22.4562C18.6335 22.2664 19.1127 22.3138 19.4809 22.5728L20.2781 23.1336C20.5433 23.3201 20.9042 23.2889 21.1334 23.0596L22.548 21.6451C22.6699 21.5232 22.7352 21.364 22.7421 21.2018H22.7431V21.1795C22.7431 21.1756 22.7431 21.1718 22.7431 21.168V20.2342H22.2311L22.0611 19.9926C21.8022 19.6244 21.7547 19.1452 21.9446 18.7371C22.0351 18.5423 22.1178 18.3432 22.1921 18.1399C22.3462 17.718 22.7189 17.4142 23.1614 17.3371L24.1213 17.1699C24.4406 17.1143 24.6738 16.8371 24.6738 16.5129V14.5125C24.6737 14.1883 24.4406 13.911 24.1212 13.8554Z" fill="url(#paint3_linear)"/>
<path d="M24.1214 12.832L23.1614 12.6649C22.7189 12.5878 22.3463 12.2839 22.1921 11.8621C22.1179 11.6589 22.0352 11.4596 21.9446 11.2649C21.7548 10.8568 21.8022 10.3775 22.0612 10.0094L22.622 9.21211C22.8085 8.94691 22.7773 8.58604 22.548 8.35682L21.1335 6.9423C20.9043 6.71309 20.5434 6.68186 20.2782 6.86836L19.4809 7.42916C19.1128 7.68814 18.6335 7.73555 18.2254 7.5457C18.0307 7.45512 17.8315 7.3725 17.6282 7.2982C17.2064 7.14404 16.9025 6.77133 16.8254 6.32889L16.6583 5.36895C16.6027 5.04955 16.3254 4.81641 16.0012 4.81641H14.0008C13.6766 4.81641 13.3994 5.04955 13.3437 5.36895L13.1766 6.32889C13.0995 6.77139 12.7957 7.14404 12.3738 7.2982C12.1706 7.37244 11.9714 7.45512 11.7766 7.5457C11.3685 7.73555 10.8893 7.68814 10.5211 7.42916L9.72383 6.86836C9.45863 6.68186 9.09775 6.71303 8.86854 6.9423L7.45402 8.35682C7.2248 8.58604 7.19357 8.94697 7.38008 9.21211L7.94088 10.0094C8.19986 10.3775 8.24727 10.8568 8.05742 11.2649C7.96684 11.4596 7.88422 11.6588 7.80992 11.8621C7.65576 12.2839 7.28305 12.5878 6.84061 12.6649L5.88066 12.832C5.56127 12.8876 5.32812 13.1649 5.32812 13.4891V15.4895C5.32812 15.8137 5.56127 16.0909 5.88066 16.1466L6.84061 16.3137C7.28311 16.3908 7.65576 16.6946 7.80992 17.1165C7.88416 17.3197 7.96684 17.5189 8.05742 17.7137C8.24727 18.1218 8.19986 18.6011 7.94088 18.9692L7.38008 19.7665C7.19357 20.0317 7.22475 20.3926 7.45396 20.6218L8.86848 22.0363C9.0977 22.2655 9.45863 22.2967 9.72377 22.1102L10.5211 21.5494C10.8893 21.2904 11.3684 21.243 11.7765 21.4329C11.9713 21.5235 12.1705 21.6061 12.3737 21.6804C12.7956 21.8345 13.0995 22.2073 13.1765 22.6497L13.3437 23.6096C13.3993 23.929 13.6766 24.1622 14.0008 24.1622H16.0012C16.3254 24.1622 16.6026 23.929 16.6582 23.6096L16.8254 22.6497C16.9024 22.2072 17.2063 21.8345 17.6282 21.6804C17.8314 21.6062 18.0306 21.5235 18.2254 21.4329C18.6335 21.243 19.1127 21.2904 19.4809 21.5494L20.2781 22.1102C20.5433 22.2967 20.9042 22.2656 21.1334 22.0363L22.5479 20.6218C22.7772 20.3926 22.8084 20.0317 22.6219 19.7665L22.0611 18.9692C21.8021 18.6011 21.7547 18.1218 21.9446 17.7137C22.0351 17.5189 22.1178 17.3198 22.1921 17.1165C22.3462 16.6946 22.7189 16.3908 23.1614 16.3137L24.1213 16.1466C24.4407 16.091 24.6738 15.8137 24.6738 15.4895V13.4891C24.6738 13.1648 24.4407 12.8876 24.1214 12.832Z" fill="white"/>
<path d="M14.0008 24.0448C13.7329 24.0448 13.5051 23.8532 13.4591 23.5893L13.292 22.6294C13.2073 22.1429 12.8708 21.7371 12.414 21.5701C12.2154 21.4975 12.0175 21.4155 11.826 21.3264C11.6454 21.2425 11.4525 21.1999 11.2524 21.1999C10.9656 21.1999 10.6894 21.2875 10.4536 21.4534L9.65639 22.0141C9.56328 22.0796 9.45395 22.1142 9.34027 22.1142C9.19332 22.1142 9.05516 22.057 8.95133 21.9532L7.53682 20.5387C7.34744 20.3493 7.32184 20.0528 7.47588 19.8338L8.03668 19.0365C8.32086 18.6325 8.36949 18.1066 8.16365 17.6641C8.07436 17.4722 7.99238 17.2743 7.91996 17.0762C7.75297 16.6193 7.34709 16.2829 6.86064 16.1982L5.9007 16.031C5.6368 15.985 5.44531 15.7573 5.44531 15.4894V13.489C5.44531 13.2212 5.63686 12.9934 5.90076 12.9474L6.86064 12.7802C7.34709 12.6955 7.75297 12.3591 7.91996 11.9022C7.99232 11.7041 8.07436 11.5062 8.16365 11.3142C8.36949 10.8717 8.32086 10.3459 8.03668 9.94189L7.47588 9.14461C7.32178 8.92553 7.34744 8.62898 7.53682 8.43955L8.95127 7.0251C9.0551 6.92127 9.19326 6.86408 9.34027 6.86408C9.45395 6.86408 9.56322 6.89865 9.65633 6.96416L10.4536 7.52496C10.6894 7.69084 10.9656 7.7785 11.2523 7.7785C11.4524 7.7785 11.6454 7.7359 11.8259 7.65193C12.0176 7.56281 12.2154 7.48084 12.4139 7.40824C12.8708 7.24131 13.2072 6.83543 13.2919 6.34893L13.4591 5.38904C13.5051 5.12514 13.7328 4.93359 14.0007 4.93359H16.0011C16.2689 4.93359 16.4967 5.12514 16.5426 5.38904L16.7098 6.34893C16.7946 6.83537 17.131 7.24131 17.5879 7.40824C17.7863 7.48078 17.9841 7.56275 18.1758 7.65193C18.3564 7.73596 18.5494 7.7785 18.7494 7.7785C19.0362 7.7785 19.3123 7.69078 19.5481 7.52496L20.3454 6.96416C20.4385 6.89865 20.5478 6.86408 20.6615 6.86408C20.8085 6.86408 20.9466 6.92127 21.0505 7.0251L22.465 8.43961C22.6544 8.62898 22.6801 8.92547 22.5259 9.14461L21.9652 9.94195C21.681 10.3459 21.6324 10.8718 21.8382 11.3143C21.9273 11.5059 22.0094 11.7038 22.0818 11.9022C22.2488 12.3591 22.6547 12.6955 23.1412 12.7802L24.1011 12.9474C24.365 12.9934 24.5565 13.2212 24.5565 13.489V15.4894C24.5565 15.7573 24.3649 15.985 24.1011 16.031L23.1412 16.1982C22.6547 16.2829 22.2488 16.6194 22.0818 17.0762C22.0094 17.2746 21.9274 17.4724 21.8382 17.6641C21.6324 18.1066 21.681 18.6325 21.9652 19.0365L22.5259 19.8337C22.68 20.0528 22.6544 20.3493 22.465 20.5387L21.0505 21.9532C20.9466 22.057 20.8085 22.1142 20.6615 22.1142C20.6615 22.1142 20.6615 22.1142 20.6615 22.1142C20.5479 22.1142 20.4385 22.0796 20.3454 22.0141L19.5482 21.4533C19.3124 21.2875 19.0362 21.1998 18.7494 21.1998C18.5493 21.1998 18.3564 21.2424 18.1758 21.3264C17.9841 21.4155 17.7863 21.4975 17.5878 21.5701C17.131 21.737 16.7946 22.1429 16.7098 22.6293L16.5426 23.5893C16.4967 23.8532 16.2689 24.0447 16.0011 24.0447L14.0008 24.0448Z" fill="url(#paint4_linear)"/>
<path d="M20.285 14.8213C20.1131 12.0502 17.8123 9.85547 14.9979 9.85547C12.1834 9.85547 9.88262 12.0502 9.7107 14.8213C9.70391 14.7111 9.69922 14.3183 9.69922 14.8213C9.69922 17.7476 12.0715 19.7871 14.9979 19.7871C17.9238 19.7871 20.2958 17.4155 20.2965 14.4896C20.2964 14.6011 20.2918 14.7115 20.285 14.8213Z" fill="#8F8F8F"/>
<path d="M14.9979 9.85703C17.8123 9.85703 20.1131 12.0517 20.285 14.8229C20.2919 14.7127 20.2965 14.602 20.2965 14.49C20.2965 11.5637 17.9242 9.19141 14.9979 9.19141C12.0715 9.19141 9.69922 11.5637 9.69922 14.49C9.69922 14.6019 9.70385 14.7127 9.7107 14.8229C9.88262 12.0517 12.1834 9.85703 14.9979 9.85703Z" fill="#5C5C5C"/>
<path d="M14.9943 18.3754C16.8444 18.3754 18.3441 16.8756 18.3441 15.0256C18.3441 13.1755 16.8444 11.6758 14.9943 11.6758C13.1443 11.6758 11.6445 13.1755 11.6445 15.0256C11.6445 16.8756 13.1443 18.3754 14.9943 18.3754Z" fill="#5C5C5C"/>
<path d="M15.0021 17.8402C16.8522 17.8402 18.3519 16.3405 18.3519 14.4904C18.3519 12.6404 16.8522 11.1406 15.0021 11.1406C13.1521 11.1406 11.6523 12.6404 11.6523 14.4904C11.6523 16.3405 13.1521 17.8402 15.0021 17.8402Z" fill="url(#paint5_linear)"/>
<path d="M14.9993 15.8893C15.7713 15.8893 16.3971 15.2635 16.3971 14.4915C16.3971 13.7195 15.7713 13.0938 14.9993 13.0938C14.2274 13.0938 13.6016 13.7195 13.6016 14.4915C13.6016 15.2635 14.2274 15.8893 14.9993 15.8893Z" fill="#5C5C5C"/>
</g>
<defs>
<linearGradient id="paint0_linear" x1="15" y1="0.292969" x2="15" y2="30.1781" gradientUnits="userSpaceOnUse">
<stop offset="0.005" stop-color="#FFE5AE"/>
<stop offset="1" stop-color="#FF992D"/>
</linearGradient>
<linearGradient id="paint1_linear" x1="15" y1="0.522773" x2="15" y2="29.9408" gradientUnits="userSpaceOnUse">
<stop stop-color="#FFD372"/>
<stop offset="1" stop-color="#FF7900"/>
</linearGradient>
<linearGradient id="paint2_linear" x1="11.1884" y1="11.1879" x2="26.4908" y2="26.4902" gradientUnits="userSpaceOnUse">
<stop stop-color="#EA5918"/>
<stop offset="1" stop-color="#FF7945" stop-opacity="0"/>
</linearGradient>
<linearGradient id="paint3_linear" x1="15.001" y1="5.99887" x2="15.001" y2="24.6627" gradientUnits="userSpaceOnUse">
<stop stop-color="#9C9C9C"/>
<stop offset="1" stop-color="#CCCCCC"/>
</linearGradient>
<linearGradient id="paint4_linear" x1="15.0009" y1="5.09062" x2="15.0009" y2="23.5289" gradientUnits="userSpaceOnUse">
<stop offset="0.005" stop-color="#F2F2F2"/>
<stop offset="1" stop-color="#E6E6E6"/>
</linearGradient>
<linearGradient id="paint5_linear" x1="15.0021" y1="11.1406" x2="15.0021" y2="17.8402" gradientUnits="userSpaceOnUse">
<stop offset="0.005" stop-color="#F2F2F2"/>
<stop offset="1" stop-color="#E6E6E6"/>
</linearGradient>
<clipPath id="clip0">
<rect width="30" height="30" fill="white"/>
</clipPath>
</defs>
</svg>
