<svg width="30" height="30" viewBox="0 0 30 30" fill="none" xmlns="http://www.w3.org/2000/svg">
<path d="M30 6.9273V23.0726C30 26.8987 26.8987 30 23.0727 30H6.92736C3.10131 30 0 26.8987 0 23.0727V6.9273C0 3.10131 3.10131 0 6.92736 0H23.0727C26.8987 0 30 3.10131 30 6.9273Z" fill="url(#paint0_linear)"/>
<path d="M6.9273 29.7656C3.23684 29.7656 0.234375 26.7632 0.234375 23.0726V6.92736C0.234375 3.23684 3.23684 0.234375 6.9273 0.234375H23.0726C26.7632 0.234375 29.7656 3.23684 29.7656 6.92736V23.0727C29.7656 26.7632 26.7632 29.7656 23.0726 29.7656H6.9273Z" fill="url(#paint1_linear)"/>
<path opacity="0.5" d="M29.9773 18.1464L29.9972 23.0722C29.9972 26.8984 26.8959 29.9998 23.0697 29.9998H15.1452L9.13281 23.9874L15.2008 5.49219L22.2696 12.5609L23.5254 11.675L29.743 17.912L29.9773 18.1464Z" fill="url(#paint2_linear)"/>
<path opacity="0.3" d="M14.8705 21.9091L10.1177 24.4078C9.59101 24.6847 8.97548 24.2375 9.07609 23.651L9.98377 18.3587C10.0237 18.1258 9.9465 17.8882 9.77728 17.7232L5.93218 13.9752C5.50609 13.5599 5.74123 12.8363 6.33004 12.7507L11.6438 11.9786C11.8776 11.9446 12.0797 11.7978 12.1843 11.5859L14.5607 6.77077C14.824 6.23722 15.5849 6.23722 15.8482 6.77077L18.2246 11.5859C18.3292 11.7978 18.5313 11.9447 18.7652 11.9786L24.079 12.7507C24.6678 12.8363 24.9029 13.5599 24.4768 13.9752L20.6317 17.7232C20.4625 17.8882 20.3853 18.1258 20.4252 18.3587L21.3329 23.651C21.4335 24.2375 20.8179 24.6847 20.2913 24.4078L15.5385 21.9091C15.3294 21.7992 15.0796 21.7992 14.8705 21.9091Z" fill="#1A1A1A"/>
<path d="M24.2494 12.4215L18.3202 11.6744C18.0863 11.6404 17.8842 11.4936 17.7796 11.2817L15.4033 6.46657C15.1399 5.93302 14.379 5.93302 14.1157 6.46657L11.7393 11.2817C11.6347 11.4936 11.4327 11.6405 11.1988 11.6744L6.05691 12.4215H5.26953V13.2228H5.27228C5.28617 13.383 5.35467 13.5419 5.48709 13.671L9.33219 17.419C9.50141 17.584 9.57857 17.8216 9.53867 18.0545L8.74391 22.6884H8.62016V23.4897H8.62068C8.63252 24.0025 9.18969 24.3575 9.67262 24.1036L14.4254 21.6049C14.6345 21.4949 14.8844 21.4949 15.0935 21.6049L19.8463 24.1036C20.342 24.3642 20.9163 23.9833 20.8982 23.4486V22.6884H20.775L19.9803 18.0544C19.9403 17.8216 20.0175 17.5839 20.1867 17.419L24.0318 13.671C24.1643 13.5419 24.2494 13.4104 24.2494 13.2227V12.4215Z" fill="url(#paint3_linear)"/>
<path d="M14.4254 20.8471L9.67264 23.3458C9.14594 23.6227 8.53042 23.1754 8.63102 22.589L9.5387 17.2967C9.57866 17.0638 9.50143 16.8262 9.33221 16.6612L5.48712 12.9132C5.06102 12.4979 5.29616 11.7743 5.88497 11.6887L11.1987 10.9166C11.4326 10.8826 11.6347 10.7358 11.7392 10.5239L14.1156 5.70876C14.379 5.17521 15.1398 5.17521 15.4032 5.70876L17.7796 10.5239C17.8841 10.7358 18.0862 10.8826 18.3201 10.9166L23.6339 11.6887C24.2227 11.7743 24.4578 12.4979 24.0317 12.9132L20.1866 16.6612C20.0174 16.8262 19.9403 17.0638 19.9802 17.2967L20.8878 22.589C20.9884 23.1754 20.3729 23.6227 19.8462 23.3458L15.0934 20.8471C14.8844 20.7371 14.6346 20.7371 14.4254 20.8471Z" fill="url(#paint4_linear)"/>
<path d="M20.179 23.302C20.0841 23.302 19.9915 23.2786 19.9037 23.2325L15.1509 20.7338C15.0302 20.6704 14.8943 20.6368 14.7579 20.6368C14.6216 20.6368 14.4857 20.6704 14.365 20.7338L9.61218 23.2325C9.52447 23.2786 9.43183 23.302 9.33685 23.302C9.16523 23.3021 8.99525 23.222 8.8821 23.0878C8.76954 22.9542 8.72407 22.7843 8.75413 22.6091L9.66181 17.3168C9.7088 17.0428 9.61798 16.7634 9.419 16.5693L5.5739 12.8213C5.40902 12.6607 5.35306 12.434 5.42419 12.2151C5.49532 11.9962 5.6738 11.8458 5.90155 11.8126L11.2154 11.0405C11.4905 11.0005 11.7282 10.8279 11.8512 10.5786L14.2276 5.76349C14.3294 5.55706 14.5277 5.43384 14.7579 5.43384C14.9881 5.43384 15.1864 5.55706 15.2882 5.76349L17.6645 10.5786C17.7876 10.8279 18.0253 11.0006 18.3004 11.0405L23.6142 11.8126C23.842 11.8458 24.0204 11.9962 24.0916 12.2151C24.1627 12.434 24.1068 12.6607 23.9419 12.8213L20.0968 16.5693C19.8978 16.7635 19.807 17.0428 19.854 17.3168L20.7616 22.6091C20.7918 22.7842 20.7462 22.9542 20.6337 23.0877C20.5206 23.2219 20.3507 23.302 20.179 23.302Z" fill="url(#paint5_linear)"/>
<defs>
<linearGradient id="paint0_linear" x1="15" y1="0.292969" x2="15" y2="30.1945" gradientUnits="userSpaceOnUse">
<stop stop-color="#9DCAFF"/>
<stop offset="1" stop-color="#345AB4"/>
</linearGradient>
<linearGradient id="paint1_linear" x1="15" y1="0.522773" x2="15" y2="29.9572" gradientUnits="userSpaceOnUse">
<stop stop-color="#70B1FF"/>
<stop offset="1" stop-color="#193291"/>
</linearGradient>
<linearGradient id="paint2_linear" x1="10.9756" y1="12.4777" x2="26.3084" y2="27.8105" gradientUnits="userSpaceOnUse">
<stop stop-color="#212385"/>
<stop offset="1" stop-color="#001E91" stop-opacity="0"/>
</linearGradient>
<linearGradient id="paint3_linear" x1="14.7595" y1="5.61374" x2="14.7595" y2="24.0298" gradientUnits="userSpaceOnUse">
<stop offset="0.005" stop-color="#ECC02A"/>
<stop offset="1" stop-color="#D1893E"/>
</linearGradient>
<linearGradient id="paint4_linear" x1="14.7594" y1="4.85575" x2="14.7594" y2="23.2718" gradientUnits="userSpaceOnUse">
<stop offset="0.005" stop-color="#FCF255"/>
<stop offset="1" stop-color="#FBC46E"/>
</linearGradient>
<linearGradient id="paint5_linear" x1="14.7579" y1="4.98747" x2="14.7579" y2="23.1463" gradientUnits="userSpaceOnUse">
<stop offset="0.005" stop-color="#FDE97E"/>
<stop offset="1" stop-color="#FBB728"/>
</linearGradient>
</defs>
</svg>
