<svg width="28" height="45" viewBox="0 0 28 45" fill="none" xmlns="http://www.w3.org/2000/svg">
<path d="M2.97266 16.6744L2.97266 28.4922L24.3065 28.4922L24.3065 16.6744L2.97266 16.6744Z" fill="#FF5F00"/>
<path d="M13.643 27.7406C11.5881 27.7428 9.5596 27.2795 7.71119 26.3857C5.86278 25.492 4.24287 24.1913 2.97414 22.5821C1.40122 24.5745 0.423116 26.9673 0.151613 29.487C-0.119889 32.0067 0.326165 34.5516 1.4388 36.8309C2.55143 39.1101 4.28574 41.0318 6.44353 42.3762C8.60132 43.7206 11.0955 44.4336 13.6411 44.4336C16.1866 44.4336 18.6808 43.7206 20.8386 42.3762C22.9964 41.0318 24.7307 39.1101 25.8434 36.8309C26.956 34.5516 27.402 32.0067 27.1305 29.487C26.859 26.9673 25.8809 24.5745 24.308 22.5821C23.0397 24.1908 21.4204 25.4912 19.5727 26.3849C17.7249 27.2786 15.6972 27.7422 13.643 27.7406Z" fill="#EB001B"/>
<path d="M13.6406 0.728513C16.1864 0.728572 18.6807 1.44169 20.8386 2.78635C22.9965 4.13101 24.7307 6.05296 25.8432 8.3325C26.9557 10.612 27.4015 13.1572 27.1296 15.677C26.8577 18.1969 25.8791 20.5897 24.3057 22.582C23.0362 20.974 21.4165 19.6739 19.5686 18.7799C17.7208 17.886 15.6932 17.4215 13.6387 17.4215C11.5843 17.4215 9.55665 17.886 7.70883 18.7799C5.86102 19.6739 4.24127 20.974 2.9718 22.582C1.39839 20.5897 0.419812 18.1969 0.147919 15.677C-0.123974 13.1572 0.321793 10.612 1.43427 8.3325C2.54674 6.05296 4.28103 4.13101 6.43889 2.78635C8.59675 1.44169 11.0911 0.728572 13.6369 0.728513L13.6406 0.728513Z" fill="#F79E1B"/>
<path d="M22.0432 2.01894L21.6061 2.01894L21.6061 1.84262L21.5156 1.84262L21.5156 2.28906L21.6061 2.28906L21.6061 2.09773L22.0432 2.09773L22.0432 2.01894ZM22.0432 1.15231L21.5156 1.15231L21.5156 1.28737L21.8925 1.44494L21.5156 1.60251L21.5156 1.72256L22.0432 1.72256L22.0432 1.62502L21.6475 1.62502L21.9905 1.47871L21.9905 1.37741L21.6475 1.2311L22.047 1.2311L22.0432 1.15231Z" fill="#F79E1B"/>
</svg>
