<svg width="30" height="30" viewBox="0 0 30 30" fill="none" xmlns="http://www.w3.org/2000/svg">
<g clip-path="url(#clip0)">
<path d="M30 6.92754V23.0725C30 26.8986 26.8986 30 23.0725 30H6.92754C3.10137 30 0 26.8986 0 23.0725V6.92754C0 3.10137 3.10137 0 6.92754 0H23.0725C26.8986 0 30 3.10137 30 6.92754Z" fill="url(#paint0_linear)"/>
<path d="M6.92754 29.7656C3.23689 29.7656 0.234375 26.7631 0.234375 23.0725V6.92754C0.234375 3.23689 3.23689 0.234375 6.92754 0.234375H23.0725C26.7631 0.234375 29.7656 3.23689 29.7656 6.92754V23.0725C29.7656 26.7631 26.7631 29.7656 23.0725 29.7656H6.92754Z" fill="url(#paint1_linear)"/>
<path opacity="0.5" d="M30.002 13.1053V23.0727C30.002 26.8988 26.9006 30.0002 23.0744 30.0002H12.7414L7.73047 24.9893L22.2482 5.35156L30.002 13.1053Z" fill="url(#paint2_linear)"/>
<path opacity="0.3" d="M22.1659 25.4603H8.42223C8.12434 25.4603 7.88281 25.2187 7.88281 24.9208V6.33238C7.88281 6.03449 8.12434 5.79297 8.42223 5.79297H22.1659C22.4638 5.79297 22.7053 6.03449 22.7053 6.33238V24.9208C22.7053 25.2187 22.4638 25.4603 22.1659 25.4603Z" fill="#1A1A1A"/>
<path d="M21.8729 25.1673H8.12926C7.83137 25.1673 7.58984 24.9258 7.58984 24.6279V6.03941C7.58984 5.74152 7.83137 5.5 8.12926 5.5H21.8729C22.1708 5.5 22.4123 5.74152 22.4123 6.03941V24.6279C22.4123 24.9258 22.1708 25.1673 21.8729 25.1673Z" fill="#C1845B"/>
<path d="M21.8729 24.8548H8.12926C7.83137 24.8548 7.58984 24.6133 7.58984 24.3154V5.72691C7.58984 5.42902 7.83137 5.1875 8.12926 5.1875H21.8729C22.1708 5.1875 22.4123 5.42902 22.4123 5.72691V24.3154C22.4123 24.6133 22.1708 24.8548 21.8729 24.8548Z" fill="url(#paint3_linear)"/>
<path d="M8.12926 24.7376C7.89641 24.7376 7.70703 24.5482 7.70703 24.3154V5.72691C7.70703 5.49406 7.89641 5.30469 8.12926 5.30469H21.8729C22.1058 5.30469 22.2951 5.49406 22.2951 5.72691V24.3154C22.2951 24.5482 22.1058 24.7376 21.8729 24.7376H8.12926Z" fill="url(#paint4_linear)"/>
<path d="M20.6882 23.9756H9.61291C9.17521 23.9756 8.82031 23.6208 8.82031 23.183V9.5426C8.82031 9.1049 9.17516 8.75 9.61291 8.75H20.6882C21.1259 8.75 21.4808 9.10484 21.4808 9.5426V23.183C21.4808 23.6208 21.1259 23.9756 20.6882 23.9756Z" fill="url(#paint5_linear)"/>
<path d="M20.5358 23.8232H9.46057C9.02287 23.8232 8.66797 23.4684 8.66797 23.0306V9.39025C8.66797 8.95256 9.02281 8.59766 9.46057 8.59766H20.5359C20.9736 8.59766 21.3285 8.9525 21.3285 9.39025V23.0307C21.3284 23.4684 20.9736 23.8232 20.5358 23.8232Z" fill="url(#paint6_linear)"/>
<path d="M20.5358 23.5655H9.46057C9.02287 23.5655 8.66797 23.2106 8.66797 22.7729V9.13244C8.66797 8.69475 9.02281 8.33984 9.46057 8.33984H20.5359C20.9736 8.33984 21.3285 8.69469 21.3285 9.13244V22.7729C21.3284 23.2106 20.9736 23.5655 20.5358 23.5655Z" fill="white"/>
<path d="M21.271 9.13311V22.7737C21.271 23.178 20.9417 23.5073 20.5369 23.5073H9.46147C9.05659 23.5073 8.72729 23.178 8.72729 22.7737V9.13311C8.72729 8.72822 9.05659 8.39893 9.46147 8.39893H20.5369C20.9417 8.39893 21.271 8.72822 21.271 9.13311Z" fill="url(#paint7_linear)"/>
<path d="M17.4175 19.7852C16.9798 19.7852 16.625 20.14 16.625 20.5778L17.1247 23.5628L20.8304 19.7852H17.4175V19.7852Z" fill="#DAD1D1"/>
<path d="M21.2684 19.418V22.7725C21.2684 23.1768 20.9391 23.5061 20.5342 23.5061H17.1797L21.2684 19.418Z" fill="url(#paint8_linear)"/>
<path d="M17.9175 19.3594C17.4798 19.3594 17.125 19.7142 17.125 20.152V23.5648L21.3303 19.3594H17.9175V19.3594Z" fill="url(#paint9_linear)"/>
<path d="M19.4832 11.0703H12.3828V11.8994H19.4832V11.0703Z" fill="#9F9898"/>
<path d="M19.4883 12.8867H10.7812V13.7158H19.4883V12.8867Z" fill="#9F9898"/>
<path d="M19.4883 14.7031H10.7812V15.5322H19.4883V14.7031Z" fill="#9F9898"/>
<path d="M19.4883 16.5156H10.7812V17.3447H19.4883V16.5156Z" fill="#9F9898"/>
<path d="M19.4883 18.3281H10.7812V19.1572H19.4883V18.3281Z" fill="#9F9898"/>
<path d="M16.275 20.1406H10.7812V20.9697H16.275V20.1406Z" fill="#9F9898"/>
<path opacity="0.35" d="M18.9182 9.74715H11.3639C11.0319 9.74715 10.7617 9.47697 10.7617 9.14492V7.51238C10.7617 7.18033 11.0319 6.91016 11.3639 6.91016H11.7205V7.37662H11.3639C11.2891 7.37662 11.2281 7.43756 11.2281 7.51244V9.14498C11.2281 9.21986 11.2891 9.2808 11.3639 9.2808H18.9182C18.9931 9.2808 19.054 9.21986 19.054 9.14498V7.51244C19.054 7.43756 18.9931 7.37662 18.9182 7.37662H18.3409V6.91016H18.9182C19.2503 6.91016 19.5204 7.18033 19.5204 7.51238V9.14492C19.5204 9.47697 19.2503 9.74715 18.9182 9.74715Z" fill="#9F9898"/>
<path d="M18.7776 9.60652H11.2233C10.8913 9.60652 10.6211 9.33634 10.6211 9.00429V7.37176C10.6211 7.03971 10.8913 6.76953 11.2233 6.76953H11.5799V7.23599H11.2233C11.1484 7.23599 11.0875 7.29693 11.0875 7.37181V9.00435C11.0875 9.07923 11.1484 9.14017 11.2233 9.14017H18.7776C18.8525 9.14017 18.9134 9.07923 18.9134 9.00435V7.37181C18.9134 7.29693 18.8525 7.23599 18.7776 7.23599H18.421V6.76953H18.7776C19.1096 6.76953 19.3798 7.03971 19.3798 7.37176V9.00429C19.3798 9.33634 19.1096 9.60652 18.7776 9.60652Z" fill="#9F9898"/>
<path d="M18.0542 7.66044H11.9511C11.7473 7.66044 11.582 7.4952 11.582 7.29141V6.70887C11.582 6.50508 11.7473 6.33984 11.9511 6.33984H18.0542C18.258 6.33984 18.4232 6.50508 18.4232 6.70887V7.29141C18.4232 7.4952 18.258 7.66044 18.0542 7.66044Z" fill="url(#paint10_linear)"/>
</g>
<defs>
<linearGradient id="paint0_linear" x1="15" y1="0.292969" x2="15" y2="30.1781" gradientUnits="userSpaceOnUse">
<stop stop-color="#C3D878"/>
<stop offset="1" stop-color="#518457"/>
</linearGradient>
<linearGradient id="paint1_linear" x1="15" y1="0.522773" x2="15" y2="29.9408" gradientUnits="userSpaceOnUse">
<stop stop-color="#ACC944"/>
<stop offset="1" stop-color="#2C684C"/>
</linearGradient>
<linearGradient id="paint2_linear" x1="13.9936" y1="14.1746" x2="26.2789" y2="26.46" gradientUnits="userSpaceOnUse">
<stop stop-color="#2C6833"/>
<stop offset="1" stop-color="#2C684C" stop-opacity="0"/>
</linearGradient>
<linearGradient id="paint3_linear" x1="15.0011" y1="5.36393" x2="15.0011" y2="24.6454" gradientUnits="userSpaceOnUse">
<stop stop-color="#FFE5C2"/>
<stop offset="1" stop-color="#E6AE7B"/>
</linearGradient>
<linearGradient id="paint4_linear" x1="15.0011" y1="5.47936" x2="15.0011" y2="24.5305" gradientUnits="userSpaceOnUse">
<stop stop-color="#FFD193"/>
<stop offset="1" stop-color="#D89A6D"/>
</linearGradient>
<linearGradient id="paint5_linear" x1="13.3941" y1="14.6064" x2="20.5385" y2="21.7507" gradientUnits="userSpaceOnUse">
<stop stop-color="#BCA083"/>
<stop offset="1" stop-color="#B09B87"/>
</linearGradient>
<linearGradient id="paint6_linear" x1="13.2422" y1="14.4544" x2="20.3859" y2="21.5981" gradientUnits="userSpaceOnUse">
<stop stop-color="#DCD2D2"/>
<stop offset="0.995" stop-color="#D3CACA"/>
</linearGradient>
<linearGradient id="paint7_linear" x1="13.2537" y1="14.2079" x2="20.3541" y2="21.3076" gradientUnits="userSpaceOnUse">
<stop stop-color="#F6EBEB"/>
<stop offset="0.995" stop-color="#EDE3E3"/>
</linearGradient>
<linearGradient id="paint8_linear" x1="19.1808" y1="21.4188" x2="20.9808" y2="23.2188" gradientUnits="userSpaceOnUse">
<stop stop-color="white"/>
<stop offset="1" stop-color="#DAD1D1"/>
</linearGradient>
<linearGradient id="paint9_linear" x1="17.3129" y1="19.5473" x2="19.1539" y2="21.3883" gradientUnits="userSpaceOnUse">
<stop stop-color="white"/>
<stop offset="0.421" stop-color="#FDFDFD"/>
<stop offset="0.618" stop-color="#F7F5F5"/>
<stop offset="0.767" stop-color="#EBE9E9"/>
<stop offset="0.893" stop-color="#DCD6D6"/>
<stop offset="0.999" stop-color="#C8C0C0"/>
</linearGradient>
<linearGradient id="paint10_linear" x1="15.0026" y1="6.35168" x2="15.0026" y2="7.64661" gradientUnits="userSpaceOnUse">
<stop stop-color="#524E4E"/>
<stop offset="0.451" stop-color="#6C6767"/>
<stop offset="1" stop-color="#524E4E"/>
</linearGradient>
<clipPath id="clip0">
<rect width="30" height="30" fill="white"/>
</clipPath>
</defs>
</svg>
