<svg width="33" height="18" viewBox="0 0 33 18" fill="none" xmlns="http://www.w3.org/2000/svg">
<path fill-rule="evenodd" clip-rule="evenodd" d="M1.9139 8.60507C2.58473 7.93425 3.2991 7.30697 4.05094 6.72931C5.19667 5.87121 6.42572 5.1259 7.72082 4.51067C8.04403 4.35561 8.37206 4.21178 8.70214 4.07368C9.6895 3.67829 10.7038 3.35599 11.737 3.10676C12.2607 2.98288 12.7888 2.87639 13.3234 2.78946C13.3897 2.77968 13.4565 2.76936 13.5233 2.75905L13.5234 2.75904C13.5902 2.74871 13.657 2.73839 13.7233 2.72861C13.7537 2.72426 13.7836 2.72046 13.8135 2.71666C13.8434 2.71285 13.8733 2.70905 13.9037 2.7047L13.9232 2.70172C13.9671 2.69625 13.9859 2.69373 13.9895 2.69315C14.2369 2.6636 14.4843 2.63805 14.7317 2.61995C15.8031 2.53084 16.8789 2.51998 17.9525 2.58952C18.2219 2.60691 18.4871 2.62864 18.7544 2.65689C18.8779 2.66884 18.9995 2.68262 19.1211 2.69655C19.1187 2.69638 19.1184 2.6965 19.1208 2.69699C19.1236 2.69757 19.1301 2.69865 19.1412 2.70036C19.1782 2.7047 19.2146 2.70959 19.251 2.71448C19.2874 2.71937 19.3238 2.72426 19.3607 2.72861C19.8932 2.80467 20.4234 2.90029 20.9515 3.01547C22.1326 3.2741 23.2902 3.63319 24.4136 4.08637C25.7152 4.63104 26.9642 5.30153 28.1363 6.08844C28.4487 6.29798 28.7527 6.51588 29.0529 6.74066C29.7982 7.31457 30.5067 7.93729 31.1723 8.60288C31.5135 8.94408 32.1394 8.97016 32.4762 8.60288C32.8131 8.2356 32.8413 7.66404 32.4762 7.29893C30.8181 5.64509 28.8969 4.23249 26.8106 3.1676C24.796 2.13965 22.6206 1.40727 20.3865 1.02913C18.0981 0.644466 15.7944 0.609697 13.4951 0.909604C11.2502 1.20299 9.06823 1.85932 7.01234 2.80685C4.8956 3.78481 2.94185 5.11701 1.22933 6.69914C1.01711 6.89404 0.811353 7.09541 0.607773 7.29466L0.605613 7.29678C0.264413 7.63798 0.238334 8.26387 0.605612 8.60072C0.977237 8.94192 1.54663 8.968 1.9139 8.60507ZM13.956 2.69717L13.9232 2.70172L13.8408 2.71186L13.87 2.70796C13.8901 2.70525 13.9102 2.70253 13.9298 2.70036L13.956 2.69717ZM13.956 2.69717L13.9895 2.69315C13.9907 2.69294 13.9901 2.69298 13.9879 2.6932C13.9832 2.69371 13.9709 2.69521 13.956 2.69717ZM3.90677 6.83822C3.93773 6.81464 3.96875 6.79113 3.99983 6.76771C3.96917 6.79121 3.93845 6.81472 3.90677 6.83822ZM24.2201 4.00647C24.272 4.02761 24.3238 4.04894 24.3755 4.07047L24.2201 4.00647ZM29.1794 6.83603C29.1548 6.81773 29.1307 6.79943 29.1068 6.78114L29.1794 6.83603ZM10.9177 17.5822C11.1758 17.3247 11.4484 17.0852 11.7355 16.8605C12.2856 16.4577 12.8775 16.1174 13.5043 15.8494C13.9004 15.6932 14.3044 15.5646 14.7183 15.4655C14.9293 15.4156 15.1381 15.3722 15.3513 15.3374C15.3774 15.3331 15.4041 15.3293 15.4307 15.3255C15.4537 15.3222 15.4768 15.3189 15.4994 15.3153C15.5178 15.3129 15.5439 15.3093 15.5681 15.3059C15.5744 15.3051 15.5806 15.3043 15.5867 15.3033L15.6004 15.3014L15.6034 15.3013C15.6164 15.3012 15.6279 15.301 15.6363 15.3005C15.695 15.294 15.7559 15.2897 15.8168 15.2853L15.8169 15.2853C16.2498 15.2484 16.6893 15.2441 17.1222 15.2723C17.2288 15.2788 17.3375 15.2875 17.4441 15.2983C17.4776 15.3011 17.512 15.3048 17.5467 15.3088C17.6154 15.3187 17.6515 15.3235 17.667 15.3252C17.8606 15.3554 18.0526 15.3908 18.2447 15.4329C18.7096 15.5339 19.1647 15.6761 19.6062 15.8482C20.2345 16.118 20.8307 16.4578 21.3833 16.862C21.6704 17.0872 21.9416 17.3285 22.2019 17.5844C22.5435 17.9252 23.17 17.9513 23.5072 17.5844C23.8444 17.2175 23.8727 16.6465 23.5072 16.2818C22.0932 14.8793 20.2462 13.8915 18.2752 13.5615C16.265 13.2229 14.231 13.4899 12.3774 14.3409C11.3528 14.8121 10.4108 15.4872 9.6102 16.2818C9.26864 16.6227 9.24253 17.2479 9.61019 17.5844C9.9822 17.9209 10.5522 17.947 10.9177 17.5822ZM17.6019 15.3153L17.5467 15.3088L17.4898 15.3005L17.5399 15.307L17.5899 15.3135L17.6019 15.3153ZM17.6019 15.3153L17.667 15.3252C17.6985 15.3288 17.6443 15.3197 17.6051 15.3157L17.6051 15.3157L17.6019 15.3153ZM15.5997 15.3014C15.5558 15.302 15.4966 15.3032 15.4753 15.3179C15.4749 15.3183 15.4846 15.3172 15.4994 15.3153L15.5101 15.3135C15.5232 15.3114 15.5368 15.3097 15.5504 15.3081L15.5681 15.3059L15.5867 15.3033C15.588 15.3031 15.5893 15.3029 15.5906 15.3027C15.5939 15.3022 15.5969 15.3018 15.5997 15.3014ZM15.6004 15.3014C15.6002 15.3014 15.5999 15.3014 15.5997 15.3014C15.6487 15.2944 15.6338 15.2966 15.6004 15.3014ZM11.6203 16.9461L11.6721 16.9073C11.655 16.9203 11.6378 16.9332 11.6203 16.9461ZM13.6653 15.7825L13.5693 15.8219C13.6012 15.8086 13.6332 15.7954 13.6653 15.7825ZM21.4993 16.9483C21.482 16.9355 21.465 16.9227 21.4481 16.9099L21.4993 16.9483ZM7.86691 11.7435C7.34358 12.1483 6.84479 12.5853 6.37642 13.0527C6.01094 13.4175 5.44096 13.3914 5.07113 13.0571C4.70347 12.7206 4.72958 12.0953 5.07113 11.7545C5.21906 11.6069 5.36917 11.4614 5.52363 11.3203C6.75496 10.187 8.15815 9.22961 9.67882 8.52838C11.1582 7.84668 12.7223 7.37558 14.3365 7.16282C16.0117 6.94137 17.6781 6.96742 19.3445 7.24531C20.9544 7.51451 22.5229 8.0464 23.9783 8.7867C25.4772 9.54872 26.8565 10.5647 28.0486 11.7501C28.4141 12.1148 28.3858 12.6858 28.0486 13.0527C27.7114 13.4196 27.0849 13.3935 26.7434 13.0527C26.275 12.5853 25.7762 12.1482 25.2528 11.7435C24.2603 11.0066 23.1803 10.3914 22.0394 9.91097C21.2536 9.59777 20.4391 9.34696 19.6121 9.16664C19.2444 9.08631 18.8724 9.01901 18.4983 8.96691C18.4893 8.96573 18.4798 8.96414 18.4701 8.96234C18.4652 8.96179 18.4594 8.96115 18.4526 8.96039L18.3938 8.95388C18.3068 8.94085 18.2198 8.93217 18.1328 8.92348C17.9392 8.90395 17.7455 8.88875 17.5497 8.87572C16.7905 8.82579 16.0291 8.83448 15.2742 8.89744C15.1129 8.90867 14.9516 8.92635 14.7903 8.94493C14.8576 8.93608 14.7911 8.94336 14.7477 8.94954C14.7412 8.9504 14.7347 8.95125 14.7283 8.9521C14.7232 8.95269 14.7181 8.95329 14.713 8.95388L14.7129 8.95389C14.6999 8.95606 14.6863 8.95768 14.6727 8.95931C14.6591 8.96094 14.6455 8.96257 14.6324 8.96474C14.6447 8.96323 14.6563 8.9618 14.6672 8.96046C14.6467 8.96333 14.6266 8.96619 14.6065 8.96906L14.6063 8.96908L14.3452 9.00816C13.9645 9.07112 13.586 9.14494 13.214 9.23395C12.4859 9.40714 11.7743 9.63376 11.0832 9.90981C9.9412 10.3904 8.86028 11.0061 7.86691 11.7435ZM7.72523 11.85C7.75297 11.8289 7.78078 11.8079 7.80866 11.787C7.78118 11.808 7.75359 11.829 7.72523 11.85ZM11.2473 9.84183L11.1623 9.87677C11.1906 9.86504 11.219 9.85339 11.2473 9.84183ZM14.6672 8.96046C14.7282 8.95291 14.7672 8.94797 14.7903 8.94493C14.7696 8.94731 14.7489 8.9497 14.7283 8.9521C14.7073 8.95489 14.6871 8.95767 14.6672 8.96046ZM18.4679 8.96193C18.4604 8.96051 18.4527 8.95897 18.4449 8.95742C18.4078 8.95002 18.3692 8.9423 18.3373 8.9452C18.336 8.94647 18.4235 8.95676 18.4679 8.96193ZM21.8724 9.84181C21.9008 9.85338 21.9292 9.86503 21.9575 9.87676L21.8724 9.84181ZM25.3946 11.85C25.3662 11.829 25.3386 11.808 25.3111 11.787C25.339 11.8079 25.3668 11.8289 25.3946 11.85Z" fill="white" fill-opacity="0.4"/>
</svg>
